<svg id="svg" version="1.1" xmlns="http://www.w3.org/2000/svg" xmlns:xlink="http://www.w3.org/1999/xlink" width="400" height="400" viewBox="0, 0, 400,400"><g id="svgg"><path id="path0" d="M0.000 200.000 L 0.000 400.000 200.000 400.000 L 400.000 400.000 400.000 200.000 L 400.000 0.000 200.000 0.000 L 0.000 0.000 0.000 200.000 M222.259 16.190 C 222.909 16.514,223.868 17.234,224.390 17.790 C 224.912 18.345,225.703 18.800,226.148 18.800 C 227.571 18.800,229.200 20.755,229.200 22.463 C 229.200 23.295,229.560 24.617,230.000 25.400 C 230.873 26.954,231.166 32.526,230.400 33.000 C 230.180 33.136,230.000 33.560,230.000 33.941 C 230.000 34.672,226.867 41.155,226.023 42.172 C 225.753 42.498,225.634 42.931,225.759 43.134 C 226.036 43.583,225.009 45.729,224.192 46.407 C 223.866 46.677,223.600 47.124,223.600 47.400 C 223.600 47.676,223.334 48.123,223.008 48.393 C 222.190 49.072,221.200 51.147,221.200 52.183 C 221.200 53.208,219.404 56.933,218.581 57.616 C 218.261 57.881,218.000 58.311,218.000 58.571 C 218.000 58.830,217.353 59.663,216.561 60.422 C 215.770 61.180,214.964 62.205,214.771 62.700 C 214.578 63.195,214.179 63.600,213.885 63.600 C 213.590 63.600,213.101 64.234,212.797 65.009 C 212.493 65.783,211.919 66.711,211.522 67.071 C 211.125 67.430,210.800 67.944,210.800 68.213 C 210.800 68.482,210.528 68.928,210.195 69.204 C 209.862 69.480,209.063 70.811,208.418 72.161 C 207.774 73.512,206.786 75.049,206.223 75.578 C 205.660 76.107,205.200 76.742,205.200 76.989 C 205.200 77.558,202.432 80.204,201.494 80.533 C 201.106 80.668,200.629 81.197,200.436 81.706 C 200.242 82.216,199.795 82.873,199.442 83.165 C 199.089 83.458,198.800 83.909,198.800 84.168 C 198.800 84.426,198.080 85.341,197.200 86.200 C 196.320 87.059,195.600 87.906,195.600 88.081 C 195.600 88.512,208.297 88.490,208.564 88.059 C 208.880 87.546,219.073 87.472,219.387 87.979 C 219.723 88.523,227.465 88.542,227.800 88.000 C 227.942 87.770,230.058 87.600,232.786 87.600 C 236.909 87.600,237.740 87.485,239.181 86.716 C 240.629 85.943,240.947 85.900,241.705 86.372 C 242.300 86.745,243.785 86.893,246.457 86.848 C 248.742 86.810,250.446 86.951,250.595 87.192 C 250.920 87.718,254.675 87.726,255.000 87.200 C 255.136 86.980,256.036 86.800,257.000 86.800 C 257.964 86.800,258.864 86.620,259.000 86.400 C 259.136 86.180,260.396 86.000,261.800 86.000 C 263.204 86.000,264.464 85.820,264.600 85.600 C 264.736 85.380,265.731 85.200,266.811 85.200 C 268.010 85.200,269.311 84.899,270.149 84.428 C 271.728 83.542,293.271 83.144,293.795 83.992 C 293.934 84.216,295.016 84.400,296.200 84.400 C 297.384 84.400,298.464 84.580,298.600 84.800 C 298.736 85.020,299.276 85.200,299.800 85.200 C 300.324 85.200,300.864 85.380,301.000 85.600 C 301.136 85.820,302.131 86.000,303.211 86.000 C 304.434 86.000,305.713 86.302,306.600 86.800 C 307.383 87.240,308.283 87.600,308.600 87.600 C 308.917 87.600,309.817 87.960,310.600 88.400 C 311.383 88.840,312.254 89.200,312.534 89.200 C 313.283 89.200,317.056 91.145,317.616 91.819 C 317.881 92.139,318.324 92.400,318.600 92.400 C 318.876 92.400,319.334 92.679,319.616 93.020 C 319.899 93.361,320.882 93.982,321.800 94.400 C 322.718 94.818,323.701 95.439,323.984 95.780 C 324.266 96.121,324.718 96.400,324.987 96.400 C 325.256 96.400,325.802 96.760,326.200 97.200 C 326.598 97.640,327.138 98.000,327.400 98.000 C 327.662 98.000,328.202 98.360,328.600 98.800 C 328.998 99.240,329.523 99.600,329.767 99.600 C 330.529 99.600,341.848 111.326,342.515 112.806 C 342.863 113.579,343.610 114.646,344.174 115.176 C 344.738 115.706,345.200 116.347,345.200 116.600 C 345.200 116.853,345.649 117.482,346.198 117.998 C 347.225 118.963,349.200 122.561,349.200 123.466 C 349.200 123.746,349.560 124.617,350.000 125.400 C 350.440 126.183,350.800 127.151,350.800 127.550 C 350.800 127.949,351.160 128.602,351.600 129.000 C 352.238 129.578,352.400 130.232,352.400 132.238 C 352.400 133.621,352.580 134.864,352.800 135.000 C 353.020 135.136,353.200 136.396,353.200 137.800 C 353.200 139.204,353.380 140.464,353.600 140.600 C 353.820 140.736,354.000 141.636,354.000 142.600 C 354.000 143.564,354.180 144.464,354.400 144.600 C 354.638 144.747,354.800 147.263,354.800 150.800 C 354.800 154.337,354.638 156.853,354.400 157.000 C 354.180 157.136,354.000 158.216,354.000 159.400 C 354.000 160.584,353.820 161.664,353.600 161.800 C 353.380 161.936,353.200 163.196,353.200 164.600 C 353.200 166.004,353.020 167.264,352.800 167.400 C 352.580 167.536,352.400 168.436,352.400 169.400 C 352.400 170.364,352.220 171.264,352.000 171.400 C 351.780 171.536,351.600 172.436,351.600 173.400 C 351.600 174.364,351.420 175.264,351.200 175.400 C 350.980 175.536,350.800 176.256,350.800 177.000 C 350.800 177.744,350.620 178.464,350.400 178.600 C 350.180 178.736,350.000 179.276,350.000 179.800 C 350.000 180.324,349.820 180.864,349.600 181.000 C 349.380 181.136,349.200 181.676,349.200 182.200 C 349.200 182.724,349.020 183.264,348.800 183.400 C 348.580 183.536,348.400 184.076,348.400 184.600 C 348.400 185.124,348.220 185.664,348.000 185.800 C 347.780 185.936,347.600 186.836,347.600 187.800 C 347.600 188.764,347.420 189.664,347.200 189.800 C 346.980 189.936,346.800 190.476,346.800 191.000 C 346.800 191.524,346.620 192.064,346.400 192.200 C 346.180 192.336,346.000 192.958,346.000 193.583 C 346.000 194.208,345.460 195.745,344.800 197.000 C 344.140 198.255,343.600 199.792,343.600 200.417 C 343.600 201.042,343.420 201.664,343.200 201.800 C 342.980 201.936,342.800 202.476,342.800 203.000 C 342.800 203.524,342.620 204.064,342.400 204.200 C 342.180 204.336,342.000 204.778,342.000 205.183 C 342.000 205.588,341.460 206.945,340.800 208.200 C 340.140 209.455,339.600 210.727,339.600 211.028 C 339.600 211.329,339.240 212.217,338.800 213.000 C 338.360 213.783,338.000 214.691,338.000 215.018 C 338.000 215.658,337.329 216.989,336.455 218.081 C 335.699 219.026,334.000 222.435,334.000 223.006 C 334.000 223.830,332.855 225.809,331.810 226.790 C 331.255 227.312,330.800 228.033,330.800 228.391 C 330.800 229.252,328.919 233.003,328.181 233.616 C 327.861 233.881,327.600 234.495,327.600 234.979 C 327.600 235.464,327.140 236.293,326.577 236.822 C 326.014 237.351,325.026 238.888,324.382 240.239 C 323.737 241.589,322.938 242.920,322.605 243.196 C 322.272 243.472,322.000 243.918,322.000 244.187 C 322.000 244.456,321.640 245.002,321.200 245.400 C 320.760 245.798,320.400 246.335,320.400 246.592 C 320.400 246.850,319.935 247.497,319.366 248.030 C 318.797 248.564,317.982 249.765,317.556 250.700 C 317.129 251.635,316.558 252.400,316.288 252.400 C 316.017 252.400,315.548 252.985,315.246 253.700 C 314.943 254.415,313.487 256.260,312.009 257.800 C 310.531 259.340,309.035 261.230,308.684 262.000 C 308.333 262.770,306.943 264.480,305.596 265.800 C 304.248 267.120,302.794 268.965,302.363 269.900 C 301.932 270.835,301.353 271.600,301.076 271.600 C 300.461 271.600,296.606 275.528,296.268 276.500 C 296.135 276.885,295.788 277.200,295.498 277.200 C 294.851 277.200,291.295 280.757,290.651 282.047 C 290.394 282.563,289.771 283.190,289.267 283.442 C 288.762 283.693,287.856 284.372,287.253 284.950 C 286.650 285.527,285.998 286.000,285.804 286.000 C 285.303 286.000,283.600 287.660,283.600 288.148 C 283.600 288.701,281.558 290.800,281.020 290.800 C 280.783 290.800,280.412 291.202,280.195 291.693 C 279.978 292.184,279.384 292.791,278.874 293.043 C 278.365 293.294,277.456 293.972,276.853 294.550 C 276.250 295.127,275.572 295.600,275.348 295.600 C 274.832 295.600,273.399 297.175,273.072 298.100 C 272.936 298.485,272.577 298.800,272.275 298.800 C 271.972 298.800,271.398 299.160,271.000 299.600 C 270.602 300.040,270.075 300.400,269.829 300.400 C 269.583 300.400,267.950 301.840,266.200 303.600 C 264.450 305.360,262.817 306.800,262.571 306.800 C 262.325 306.800,261.798 307.160,261.400 307.600 C 261.002 308.040,260.465 308.400,260.208 308.400 C 259.950 308.400,259.303 308.865,258.770 309.434 C 258.236 310.003,257.080 310.800,256.200 311.206 C 255.320 311.611,253.798 312.766,252.817 313.771 C 251.836 314.777,250.823 315.600,250.566 315.600 C 250.308 315.600,249.858 315.889,249.565 316.242 C 249.273 316.595,248.617 317.041,248.109 317.234 C 247.601 317.428,247.013 318.039,246.803 318.593 C 246.592 319.147,246.173 319.600,245.872 319.600 C 245.571 319.600,244.998 319.960,244.600 320.400 C 244.202 320.840,243.662 321.200,243.400 321.200 C 243.138 321.200,242.598 321.560,242.200 322.000 C 241.802 322.440,241.270 322.800,241.019 322.800 C 240.768 322.800,239.859 323.520,239.000 324.400 C 238.141 325.280,237.056 326.000,236.589 326.000 C 236.122 326.000,235.303 326.465,234.770 327.034 C 234.236 327.603,233.080 328.399,232.200 328.804 C 231.320 329.208,229.980 330.183,229.222 330.969 C 228.463 331.756,227.460 332.400,226.991 332.400 C 226.523 332.400,225.703 332.865,225.170 333.434 C 224.636 334.003,223.480 334.798,222.600 335.200 C 221.720 335.602,220.564 336.397,220.030 336.966 C 219.497 337.535,218.844 338.000,218.579 338.000 C 218.315 338.000,217.871 338.273,217.594 338.607 C 217.032 339.285,215.024 340.275,213.803 340.478 C 213.365 340.550,212.770 341.103,212.481 341.705 C 212.059 342.585,211.686 342.800,210.578 342.800 C 209.630 342.800,209.200 342.984,209.200 343.390 C 209.200 343.715,208.419 344.336,207.465 344.770 C 206.511 345.205,205.499 345.839,205.216 346.180 C 204.934 346.521,204.482 346.800,204.213 346.800 C 203.944 346.800,203.398 347.160,203.000 347.600 C 202.602 348.040,202.062 348.400,201.800 348.400 C 201.538 348.400,200.998 348.760,200.600 349.200 C 200.202 349.640,199.656 350.000,199.387 350.000 C 199.118 350.000,198.672 350.272,198.396 350.605 C 198.120 350.938,196.772 351.745,195.400 352.400 C 194.028 353.055,192.680 353.862,192.404 354.195 C 192.128 354.528,191.691 354.800,191.432 354.800 C 191.174 354.800,190.259 355.520,189.400 356.400 C 188.538 357.282,187.453 358.000,186.981 358.000 C 186.510 358.000,185.798 358.360,185.400 358.800 C 184.964 359.282,184.168 359.600,183.400 359.600 C 182.632 359.600,181.836 359.918,181.400 360.400 C 181.002 360.840,180.462 361.200,180.200 361.200 C 179.938 361.200,179.398 361.560,179.000 362.000 C 178.602 362.440,177.876 362.800,177.387 362.800 C 176.898 362.800,176.277 363.066,176.007 363.392 C 175.446 364.067,173.312 365.200,172.600 365.200 C 171.888 365.200,169.754 366.333,169.193 367.008 C 168.923 367.334,168.482 367.600,168.213 367.600 C 167.944 367.600,167.398 367.960,167.000 368.400 C 166.602 368.840,165.882 369.200,165.400 369.200 C 164.918 369.200,164.198 369.560,163.800 370.000 C 163.402 370.440,162.790 370.800,162.441 370.800 C 161.588 370.800,154.585 374.296,153.981 375.023 C 153.718 375.340,153.182 375.600,152.792 375.600 C 152.401 375.600,151.055 376.140,149.800 376.800 C 148.545 377.460,147.188 378.000,146.783 378.000 C 146.378 378.000,145.936 378.180,145.800 378.400 C 145.664 378.620,145.124 378.800,144.600 378.800 C 144.076 378.800,143.536 378.980,143.400 379.200 C 143.264 379.420,142.822 379.600,142.417 379.600 C 142.012 379.600,140.655 380.140,139.400 380.800 C 138.145 381.460,136.873 382.000,136.572 382.000 C 136.271 382.000,135.383 382.360,134.600 382.800 C 133.713 383.298,132.434 383.600,131.211 383.600 C 130.131 383.600,129.136 383.780,129.000 384.000 C 128.864 384.220,128.144 384.400,127.400 384.400 C 126.656 384.400,125.936 384.580,125.800 384.800 C 125.664 385.020,125.124 385.200,124.600 385.200 C 124.076 385.200,123.536 385.380,123.400 385.600 C 123.264 385.820,122.021 386.000,120.638 386.000 C 118.632 386.000,117.978 386.162,117.400 386.800 C 117.002 387.240,116.349 387.600,115.950 387.600 C 115.551 387.600,114.583 387.960,113.800 388.400 C 113.017 388.840,112.032 389.200,111.611 389.200 C 111.191 389.200,110.736 389.380,110.600 389.600 C 110.464 389.820,109.829 390.000,109.189 390.000 C 108.548 390.000,107.383 390.360,106.600 390.800 C 105.067 391.661,103.399 391.846,103.000 391.200 C 102.864 390.980,102.169 390.800,101.456 390.800 C 100.743 390.800,99.989 390.629,99.779 390.419 C 99.570 390.210,98.082 389.994,96.473 389.938 C 94.864 389.883,93.458 389.694,93.350 389.519 C 93.241 389.344,92.381 389.200,91.438 389.200 C 89.458 389.200,88.977 388.766,87.566 385.707 C 87.034 384.556,86.430 383.611,86.222 383.607 C 84.339 383.572,82.435 377.567,84.000 376.600 C 84.220 376.464,84.400 375.941,84.400 375.438 C 84.400 374.935,84.760 374.198,85.200 373.800 C 85.640 373.402,86.000 372.868,86.000 372.613 C 86.000 372.014,88.098 370.000,88.722 370.000 C 88.985 370.000,89.200 369.779,89.200 369.509 C 89.200 368.646,95.318 362.800,96.221 362.800 C 96.683 362.800,97.497 362.335,98.030 361.766 C 98.564 361.197,99.754 360.387,100.676 359.967 C 101.597 359.546,102.463 359.021,102.600 358.800 C 102.737 358.579,103.603 358.054,104.524 357.633 C 105.446 357.213,106.636 356.403,107.170 355.834 C 107.703 355.265,108.527 354.800,109.000 354.800 C 109.473 354.800,110.288 354.345,110.810 353.790 C 112.033 352.488,113.828 351.600,115.238 351.600 C 115.851 351.600,116.464 351.420,116.600 351.200 C 117.418 349.876,127.594 351.105,127.603 352.529 C 127.611 353.749,135.103 354.728,135.800 353.600 C 135.936 353.380,137.291 353.200,138.811 353.200 C 140.834 353.200,141.958 352.985,143.000 352.400 C 143.783 351.960,144.768 351.600,145.189 351.600 C 145.609 351.600,146.064 351.420,146.200 351.200 C 146.336 350.980,146.876 350.800,147.400 350.800 C 147.924 350.800,148.464 350.620,148.600 350.400 C 148.736 350.180,149.276 350.000,149.800 350.000 C 150.324 350.000,150.864 349.820,151.000 349.600 C 151.136 349.380,151.839 349.200,152.562 349.200 C 153.368 349.200,154.156 348.891,154.600 348.400 C 154.998 347.960,155.806 347.600,156.394 347.600 C 157.451 347.600,160.598 346.202,161.919 345.145 C 162.983 344.294,164.337 343.600,164.933 343.600 C 165.608 343.600,167.907 342.474,168.200 342.000 C 168.522 341.479,170.823 340.400,171.612 340.400 C 171.992 340.400,172.523 340.134,172.793 339.808 C 173.354 339.133,175.488 338.000,176.200 338.000 C 176.912 338.000,179.046 336.867,179.607 336.192 C 179.877 335.866,180.318 335.600,180.587 335.600 C 180.856 335.600,181.402 335.240,181.800 334.800 C 182.198 334.360,182.744 334.000,183.013 334.000 C 183.282 334.000,183.734 333.721,184.016 333.380 C 184.299 333.039,185.300 332.410,186.241 331.981 C 187.182 331.553,188.059 331.027,188.191 330.814 C 188.323 330.601,189.560 329.887,190.939 329.229 C 192.318 328.571,193.792 327.651,194.214 327.185 C 194.635 326.719,195.720 326.001,196.625 325.589 C 197.529 325.177,198.501 324.561,198.784 324.220 C 199.066 323.879,199.512 323.600,199.774 323.600 C 200.036 323.600,200.768 323.060,201.400 322.400 C 202.032 321.740,202.848 321.200,203.213 321.200 C 204.082 321.200,206.184 320.142,206.807 319.392 C 207.077 319.066,207.692 318.800,208.174 318.800 C 208.656 318.800,209.568 318.260,210.200 317.600 C 210.832 316.940,211.552 316.400,211.800 316.400 C 212.048 316.400,212.768 315.860,213.400 315.200 C 214.032 314.540,214.752 314.000,215.000 314.000 C 215.248 314.000,215.968 313.460,216.600 312.800 C 217.232 312.140,217.949 311.600,218.194 311.600 C 218.438 311.600,219.341 310.880,220.200 310.000 C 221.059 309.120,222.139 308.400,222.600 308.400 C 223.061 308.400,224.141 307.680,225.000 306.800 C 225.859 305.920,226.768 305.200,227.019 305.200 C 227.270 305.200,227.802 304.840,228.200 304.400 C 228.598 303.960,229.138 303.600,229.400 303.600 C 229.662 303.600,230.202 303.240,230.600 302.800 C 230.998 302.360,231.527 302.000,231.775 302.000 C 232.022 302.000,233.264 300.950,234.535 299.666 C 235.805 298.382,237.464 297.089,238.222 296.791 C 238.980 296.494,239.600 296.010,239.600 295.715 C 239.600 295.421,240.033 295.016,240.561 294.815 C 241.090 294.614,241.647 294.247,241.800 294.000 C 241.953 293.753,242.513 293.385,243.046 293.182 C 243.579 292.980,244.172 292.406,244.365 291.907 C 244.815 290.742,246.251 289.463,247.900 288.759 C 248.615 288.454,249.200 288.034,249.200 287.824 C 249.200 287.288,251.259 285.200,251.787 285.200 C 252.028 285.200,253.294 284.120,254.600 282.800 C 255.906 281.480,257.149 280.400,257.362 280.400 C 257.908 280.400,259.600 278.750,259.600 278.218 C 259.600 277.974,260.680 276.706,262.000 275.400 C 263.320 274.094,264.400 272.833,264.400 272.597 C 264.400 272.362,265.300 271.283,266.400 270.200 C 267.500 269.117,268.400 268.039,268.400 267.806 C 268.400 267.572,269.840 265.950,271.600 264.200 C 273.360 262.450,274.800 260.826,274.800 260.591 C 274.800 260.355,275.520 259.459,276.400 258.600 C 277.280 257.741,278.000 256.841,278.000 256.600 C 278.000 256.359,278.720 255.459,279.600 254.600 C 280.480 253.741,281.200 252.836,281.200 252.589 C 281.200 252.342,281.660 251.707,282.223 251.178 C 282.786 250.649,283.785 249.088,284.444 247.708 C 285.102 246.329,285.858 245.200,286.123 245.200 C 286.388 245.200,286.853 244.615,287.158 243.900 C 287.462 243.185,288.197 242.060,288.791 241.400 C 289.385 240.740,290.175 239.533,290.547 238.717 C 290.918 237.901,291.385 237.133,291.585 237.009 C 292.234 236.608,293.200 234.307,293.200 233.162 C 293.200 232.549,293.380 231.936,293.600 231.800 C 293.820 231.664,294.000 231.124,294.000 230.600 C 294.000 230.076,294.180 229.536,294.400 229.400 C 294.620 229.264,294.800 228.839,294.800 228.455 C 294.800 227.558,296.661 223.813,297.419 223.184 C 297.739 222.919,298.000 222.285,298.000 221.775 C 298.000 221.265,298.180 220.736,298.400 220.600 C 298.620 220.464,298.800 219.924,298.800 219.400 C 298.800 218.876,298.980 218.336,299.200 218.200 C 299.420 218.064,299.600 217.541,299.600 217.038 C 299.600 216.535,299.960 215.798,300.400 215.400 C 300.891 214.956,301.200 214.168,301.200 213.362 C 301.200 212.639,301.380 211.936,301.600 211.800 C 301.820 211.664,302.000 211.222,302.000 210.817 C 302.000 210.412,302.540 209.055,303.200 207.800 C 303.860 206.545,304.400 205.188,304.400 204.783 C 304.400 204.378,304.580 203.936,304.800 203.800 C 305.020 203.664,305.200 202.224,305.200 200.600 C 305.200 198.976,305.380 197.536,305.600 197.400 C 305.820 197.264,306.000 196.004,306.000 194.600 C 306.000 193.196,306.180 191.936,306.400 191.800 C 306.620 191.664,306.800 191.124,306.800 190.600 C 306.800 190.076,306.980 189.536,307.200 189.400 C 307.420 189.264,307.600 188.389,307.600 187.456 C 307.600 186.523,307.783 185.577,308.007 185.353 C 308.231 185.129,308.438 183.647,308.468 182.059 C 308.497 180.471,308.674 179.078,308.861 178.963 C 309.047 178.847,309.200 177.784,309.200 176.600 C 309.200 175.416,309.380 174.336,309.600 174.200 C 309.845 174.049,310.000 170.870,310.000 166.000 C 310.000 161.130,309.845 157.951,309.600 157.800 C 309.380 157.664,309.200 156.944,309.200 156.200 C 309.200 155.456,309.020 154.736,308.800 154.600 C 308.580 154.464,308.400 154.009,308.400 153.589 C 308.400 153.168,308.040 152.183,307.600 151.400 C 307.160 150.617,306.800 149.567,306.800 149.068 C 306.800 147.928,305.929 146.007,305.410 146.003 C 304.890 145.999,299.600 140.733,299.600 140.219 C 299.600 139.676,293.130 133.200,292.587 133.200 C 292.351 133.200,291.537 132.556,290.778 131.769 C 290.020 130.983,288.676 130.006,287.790 129.600 C 286.905 129.194,285.847 128.494,285.440 128.044 C 285.032 127.594,282.992 126.378,280.905 125.343 C 275.634 122.727,275.827 122.495,275.691 131.633 C 275.630 135.720,275.408 139.152,275.191 139.369 C 274.976 139.584,274.800 140.163,274.800 140.656 C 274.800 141.149,274.620 141.664,274.400 141.800 C 274.180 141.936,274.000 142.999,274.000 144.162 C 274.000 145.768,273.808 146.450,273.200 147.000 C 272.680 147.471,272.400 148.232,272.400 149.177 C 272.400 150.545,268.944 158.180,267.582 159.821 C 267.290 160.173,266.679 161.212,266.224 162.130 C 265.769 163.049,264.993 163.978,264.498 164.195 C 264.004 164.412,263.600 164.780,263.600 165.012 C 263.600 165.244,262.779 166.236,261.776 167.217 C 260.772 168.198,259.662 169.630,259.309 170.400 C 258.400 172.379,257.610 173.200,256.613 173.200 C 256.138 173.200,255.232 173.740,254.600 174.400 C 253.968 175.060,253.262 175.600,253.032 175.600 C 252.501 175.600,244.400 183.651,244.400 184.179 C 244.400 184.730,240.729 188.400,240.177 188.400 C 239.928 188.400,239.398 188.760,239.000 189.200 C 238.602 189.640,238.077 190.000,237.833 190.000 C 237.589 190.000,237.212 190.404,236.995 190.898 C 236.778 191.393,235.832 192.178,234.893 192.643 C 233.954 193.108,232.874 193.739,232.493 194.045 C 231.243 195.047,230.026 195.600,229.073 195.600 C 228.125 195.600,224.934 197.053,223.681 198.055 C 222.499 199.001,221.238 199.600,220.429 199.600 C 219.999 199.600,219.536 199.780,219.400 200.000 C 219.264 200.220,218.544 200.400,217.800 200.400 C 217.056 200.400,216.336 200.580,216.200 200.800 C 216.064 201.020,214.804 201.200,213.400 201.200 C 211.996 201.200,210.736 201.380,210.600 201.600 C 210.464 201.820,209.744 202.000,209.000 202.000 C 208.256 202.000,207.536 202.180,207.400 202.400 C 207.264 202.620,206.544 202.800,205.800 202.800 C 205.056 202.800,204.336 202.980,204.200 203.200 C 203.865 203.741,186.535 203.741,186.200 203.200 C 185.853 202.639,182.549 202.700,181.614 203.284 C 180.973 203.684,180.549 203.615,179.181 202.884 C 178.076 202.294,176.825 202.000,175.424 202.000 C 173.302 202.000,171.295 201.279,170.393 200.192 C 170.123 199.866,169.682 199.600,169.413 199.600 C 169.144 199.600,168.598 199.240,168.200 198.800 C 167.767 198.322,166.968 198.000,166.213 198.000 C 164.650 198.000,163.347 196.669,161.868 193.563 C 161.282 192.333,160.441 190.999,159.999 190.599 C 158.588 189.322,158.000 187.605,158.000 184.762 C 158.000 183.269,157.820 181.936,157.600 181.800 C 157.080 181.478,157.080 178.522,157.600 178.200 C 157.820 178.064,158.000 176.984,158.000 175.800 C 158.000 174.616,158.180 173.536,158.400 173.400 C 158.620 173.264,158.800 172.648,158.800 172.032 C 158.800 171.415,159.520 169.511,160.400 167.800 C 161.280 166.089,162.000 164.475,162.000 164.213 C 162.000 163.605,163.728 160.177,164.487 159.281 C 164.804 158.906,165.540 157.600,166.123 156.378 C 166.706 155.156,167.637 153.729,168.191 153.208 C 168.746 152.687,169.200 152.056,169.200 151.805 C 169.200 151.555,169.740 150.832,170.400 150.200 C 171.060 149.568,171.600 148.849,171.600 148.604 C 171.600 148.358,172.244 147.537,173.031 146.778 C 173.817 146.020,174.792 144.680,175.196 143.800 C 175.601 142.920,176.397 141.764,176.966 141.230 C 177.535 140.697,178.000 140.050,178.000 139.792 C 178.000 139.535,178.360 138.998,178.800 138.600 C 179.240 138.202,179.600 137.689,179.600 137.460 C 179.600 136.903,181.638 134.800,182.177 134.800 C 182.412 134.800,182.853 134.215,183.158 133.500 C 183.462 132.785,184.258 131.618,184.928 130.906 C 185.597 130.194,186.032 129.499,185.894 129.361 C 185.477 128.943,178.292 129.148,177.851 129.589 C 177.625 129.815,176.497 130.000,175.344 130.000 C 174.191 130.000,173.136 130.180,173.000 130.400 C 172.864 130.620,171.964 130.800,171.000 130.800 C 170.036 130.800,169.136 130.980,169.000 131.200 C 168.864 131.420,168.324 131.600,167.800 131.600 C 167.276 131.600,166.736 131.780,166.600 132.000 C 166.464 132.220,165.924 132.400,165.400 132.400 C 164.876 132.400,164.336 132.580,164.200 132.800 C 164.064 133.020,163.535 133.200,163.025 133.200 C 162.515 133.200,161.866 133.479,161.584 133.820 C 161.301 134.161,160.334 134.777,159.435 135.189 C 158.536 135.601,157.180 136.583,156.422 137.369 C 155.663 138.156,154.846 138.800,154.605 138.800 C 154.063 138.800,150.800 142.081,150.800 142.626 C 150.800 142.843,149.540 144.272,148.000 145.800 C 146.460 147.328,145.200 148.773,145.200 149.011 C 145.200 149.249,144.559 150.063,143.775 150.822 C 142.991 151.580,141.823 153.301,141.179 154.647 C 140.536 155.993,139.738 157.320,139.405 157.596 C 139.072 157.872,138.800 158.287,138.800 158.517 C 138.800 158.748,138.501 159.267,138.136 159.671 C 137.770 160.075,137.271 160.806,137.028 161.295 C 136.784 161.784,136.202 162.375,135.735 162.608 C 134.270 163.338,133.585 164.078,132.811 165.765 C 132.399 166.664,131.417 168.020,130.631 168.778 C 129.844 169.537,129.200 170.355,129.200 170.597 C 129.200 170.839,128.480 171.741,127.600 172.600 C 126.720 173.459,126.000 174.368,126.000 174.619 C 126.000 174.870,125.640 175.402,125.200 175.800 C 124.760 176.198,124.400 176.732,124.400 176.987 C 124.400 177.557,122.456 179.393,121.494 179.731 C 121.106 179.868,120.615 180.434,120.404 180.990 C 120.193 181.545,119.777 182.000,119.480 182.000 C 119.183 182.000,118.503 182.469,117.970 183.042 C 117.436 183.616,116.610 184.236,116.132 184.420 C 115.655 184.605,115.025 185.255,114.732 185.866 C 114.440 186.477,113.784 187.184,113.274 187.438 C 112.765 187.692,111.856 188.372,111.253 188.950 C 110.650 189.527,109.984 190.000,109.773 190.000 C 109.562 190.000,109.212 190.402,108.995 190.893 C 108.778 191.384,108.184 191.991,107.674 192.243 C 107.165 192.494,106.256 193.172,105.653 193.750 C 105.050 194.327,104.257 194.800,103.890 194.800 C 103.524 194.800,102.583 195.160,101.800 195.600 C 100.659 196.241,99.634 196.400,96.650 196.400 C 93.432 196.400,92.825 196.291,92.200 195.600 C 91.802 195.160,91.172 194.800,90.799 194.800 C 89.794 194.800,87.600 193.612,87.600 193.068 C 87.600 192.808,87.015 192.346,86.300 192.042 C 84.793 191.400,82.800 189.661,82.800 188.987 C 82.800 188.732,82.440 188.198,82.000 187.800 C 81.560 187.402,81.200 186.697,81.200 186.233 C 81.200 185.745,80.824 185.223,80.307 184.995 C 79.816 184.778,79.215 184.196,78.972 183.703 C 78.728 183.209,78.261 182.489,77.934 182.103 C 77.606 181.716,76.674 180.030,75.862 178.355 C 75.050 176.681,74.015 174.975,73.562 174.565 C 73.109 174.155,72.401 173.080,71.989 172.175 C 71.577 171.271,70.961 170.299,70.620 170.016 C 70.235 169.697,70.000 168.847,70.000 167.775 C 70.000 166.825,69.820 165.936,69.600 165.800 C 69.037 165.452,69.100 161.860,69.680 161.280 C 70.053 160.907,70.053 160.693,69.680 160.320 C 69.101 159.741,69.035 155.349,69.600 155.000 C 69.820 154.864,70.000 154.324,70.000 153.800 C 70.000 153.276,70.180 152.736,70.400 152.600 C 70.620 152.464,70.800 151.941,70.800 151.438 C 70.800 150.935,71.160 150.198,71.600 149.800 C 72.040 149.402,72.400 148.862,72.400 148.600 C 72.400 148.338,72.760 147.798,73.200 147.400 C 73.640 147.002,74.000 146.456,74.000 146.187 C 74.000 145.918,74.272 145.472,74.605 145.196 C 74.938 144.920,75.757 143.548,76.425 142.147 C 77.252 140.415,77.871 139.600,78.359 139.600 C 79.274 139.600,81.367 138.562,82.007 137.792 C 82.277 137.466,82.718 137.200,82.987 137.200 C 83.256 137.200,83.802 136.840,84.200 136.400 C 84.598 135.960,85.138 135.600,85.400 135.600 C 85.662 135.600,86.202 135.240,86.600 134.800 C 86.998 134.360,87.529 134.000,87.779 134.000 C 88.029 134.000,89.033 133.185,90.011 132.189 C 91.979 130.184,95.183 128.400,96.817 128.400 C 97.399 128.400,98.202 128.040,98.600 127.600 C 98.998 127.160,99.535 126.800,99.792 126.800 C 100.050 126.800,100.688 126.345,101.210 125.790 C 102.278 124.652,104.189 123.600,105.187 123.600 C 105.552 123.600,106.368 123.060,107.000 122.400 C 107.632 121.740,108.441 121.200,108.796 121.200 C 109.653 121.200,113.405 119.317,114.016 118.581 C 114.281 118.261,114.790 118.000,115.146 118.000 C 116.009 118.000,123.010 114.511,123.619 113.777 C 123.882 113.460,124.318 113.200,124.587 113.200 C 124.856 113.200,125.402 112.840,125.800 112.400 C 126.198 111.960,127.018 111.600,127.621 111.600 C 128.225 111.600,129.745 111.060,131.000 110.400 C 132.255 109.740,133.601 109.200,133.992 109.200 C 134.382 109.200,134.923 108.934,135.193 108.608 C 135.754 107.933,137.888 106.800,138.600 106.800 C 139.312 106.800,141.446 105.667,142.007 104.992 C 142.277 104.666,142.712 104.400,142.974 104.400 C 143.236 104.400,143.968 103.860,144.600 103.200 C 145.232 102.540,145.958 102.000,146.213 102.000 C 146.468 102.000,147.002 101.640,147.400 101.200 C 147.798 100.760,148.335 100.400,148.592 100.400 C 149.246 100.400,150.548 98.863,151.308 97.194 C 151.660 96.421,152.410 95.354,152.974 94.824 C 153.538 94.294,154.000 93.660,154.000 93.415 C 154.000 93.170,154.900 92.083,156.000 91.000 C 157.100 89.917,158.000 88.794,158.000 88.505 C 158.000 88.216,158.453 87.808,159.007 87.597 C 159.561 87.387,160.175 86.806,160.372 86.307 C 160.568 85.808,161.735 84.416,162.964 83.214 C 164.194 82.011,165.200 80.834,165.200 80.597 C 165.200 80.360,166.021 79.364,167.023 78.383 C 168.026 77.402,169.375 75.496,170.021 74.147 C 170.739 72.648,171.506 71.613,171.993 71.486 C 172.432 71.371,172.953 70.855,173.153 70.339 C 173.352 69.822,173.984 68.964,174.558 68.430 C 175.270 67.767,175.600 67.047,175.600 66.154 C 175.600 65.435,175.780 64.736,176.000 64.600 C 176.220 64.464,176.400 64.003,176.400 63.576 C 176.400 62.749,171.920 62.359,171.435 63.143 C 171.318 63.332,170.112 63.502,168.753 63.521 C 167.395 63.541,166.094 63.746,165.862 63.978 C 165.630 64.210,164.857 64.400,164.144 64.400 C 163.431 64.400,162.736 64.580,162.600 64.800 C 162.464 65.020,161.469 65.200,160.389 65.200 C 159.166 65.200,157.887 65.502,157.000 66.000 C 156.217 66.440,155.317 66.800,155.000 66.800 C 154.683 66.800,153.783 67.160,153.000 67.600 C 152.217 68.040,151.077 68.400,150.468 68.400 C 149.859 68.400,149.189 68.565,148.980 68.766 C 148.771 68.968,148.164 69.193,147.630 69.266 C 147.051 69.346,146.394 69.883,145.998 70.599 C 145.215 72.017,141.920 73.912,140.149 73.964 C 139.461 73.984,138.666 74.279,138.384 74.620 C 138.101 74.961,137.118 75.582,136.200 76.000 C 135.282 76.418,134.299 77.039,134.016 77.380 C 133.734 77.721,133.074 78.000,132.551 78.000 C 131.965 78.000,131.600 78.234,131.600 78.610 C 131.600 78.945,131.188 79.377,130.684 79.568 C 130.180 79.760,129.527 80.205,129.235 80.558 C 128.942 80.911,128.362 81.200,127.946 81.200 C 127.530 81.200,126.832 81.423,126.395 81.696 C 125.757 82.094,125.432 82.088,124.753 81.663 C 124.145 81.284,123.783 81.257,123.473 81.567 C 122.929 82.111,120.132 82.136,119.800 81.600 C 119.664 81.380,119.145 81.200,118.646 81.200 C 118.147 81.200,117.303 80.735,116.770 80.166 C 116.236 79.597,115.080 78.802,114.200 78.400 C 111.964 77.378,110.000 74.960,110.000 73.229 C 110.000 72.799,109.820 72.336,109.600 72.200 C 109.380 72.064,109.200 70.534,109.200 68.800 C 109.200 67.066,109.380 65.536,109.600 65.400 C 109.820 65.264,110.000 63.770,110.000 62.080 C 110.000 58.694,111.694 54.378,113.800 52.400 C 114.350 51.883,114.800 51.258,114.800 51.011 C 114.800 50.764,115.520 49.859,116.400 49.000 C 117.280 48.141,118.000 47.238,118.000 46.994 C 118.000 46.749,118.540 46.032,119.200 45.400 C 119.860 44.768,120.400 44.010,120.400 43.715 C 120.400 43.421,120.833 43.016,121.361 42.815 C 121.890 42.614,122.433 42.270,122.569 42.050 C 122.981 41.383,125.256 40.400,126.387 40.400 C 127.046 40.400,127.887 39.944,128.600 39.200 C 129.232 38.540,130.155 38.000,130.651 38.000 C 131.147 38.000,131.664 37.820,131.800 37.600 C 131.936 37.380,132.918 37.200,133.983 37.200 C 135.360 37.200,136.577 36.854,138.200 36.000 C 139.455 35.340,141.058 34.800,141.762 34.800 C 143.124 34.800,146.811 33.150,147.616 32.181 C 147.901 31.837,148.804 31.600,149.825 31.600 C 150.775 31.600,151.664 31.420,151.800 31.200 C 151.936 30.980,152.391 30.800,152.811 30.800 C 153.232 30.800,154.217 30.440,155.000 30.000 C 155.783 29.560,156.948 29.200,157.589 29.200 C 158.229 29.200,158.864 29.020,159.000 28.800 C 159.136 28.580,159.676 28.400,160.200 28.400 C 160.724 28.400,161.264 28.220,161.400 28.000 C 161.536 27.780,162.239 27.600,162.962 27.600 C 163.768 27.600,164.556 27.291,165.000 26.800 C 165.398 26.360,166.135 26.000,166.638 26.000 C 167.141 26.000,167.664 25.820,167.800 25.600 C 167.936 25.380,169.016 25.200,170.200 25.200 C 171.384 25.200,172.464 25.020,172.600 24.800 C 172.736 24.580,173.636 24.400,174.600 24.400 C 175.564 24.400,176.464 24.220,176.600 24.000 C 176.736 23.780,177.731 23.600,178.811 23.600 C 180.034 23.600,181.313 23.298,182.200 22.800 C 183.291 22.187,184.366 22.000,186.789 22.000 C 188.529 22.000,190.064 21.820,190.200 21.600 C 190.336 21.380,191.596 21.200,193.000 21.200 C 194.404 21.200,195.664 21.020,195.800 20.800 C 195.936 20.580,196.399 20.400,196.829 20.400 C 197.259 20.400,197.957 20.184,198.381 19.919 C 198.991 19.538,199.368 19.555,200.200 20.000 C 201.032 20.445,201.409 20.462,202.019 20.081 C 202.443 19.816,203.141 19.600,203.571 19.600 C 204.001 19.600,204.464 19.420,204.600 19.200 C 204.736 18.980,205.456 18.800,206.200 18.800 C 206.944 18.800,207.664 18.620,207.800 18.400 C 207.936 18.180,209.016 18.000,210.200 18.000 C 211.384 18.000,212.464 17.820,212.600 17.600 C 212.736 17.380,213.242 17.187,213.724 17.171 C 214.206 17.155,215.140 16.808,215.800 16.400 C 217.283 15.484,220.626 15.375,222.259 16.190 M218.600 137.600 C 218.464 137.820,217.872 138.000,217.284 138.000 C 215.974 138.000,210.824 140.427,210.810 141.051 C 210.805 141.299,210.521 141.734,210.180 142.016 C 209.839 142.299,209.218 143.282,208.800 144.200 C 208.382 145.118,207.761 146.101,207.420 146.384 C 207.079 146.666,206.800 147.124,206.800 147.400 C 206.800 147.676,206.534 148.123,206.208 148.393 C 205.264 149.177,204.400 151.211,204.400 152.649 C 204.400 153.379,204.040 154.617,203.600 155.400 C 203.160 156.183,202.800 157.323,202.800 157.932 C 202.800 158.541,202.617 159.223,202.394 159.446 C 201.564 160.276,203.824 163.319,206.295 164.700 C 206.787 164.975,208.441 165.200,209.971 165.200 C 211.501 165.200,212.864 165.380,213.000 165.600 C 213.136 165.820,214.396 166.000,215.800 166.000 C 217.204 166.000,218.464 166.180,218.600 166.400 C 218.950 166.967,222.237 166.897,223.305 166.300 C 224.661 165.543,226.800 163.504,226.800 162.971 C 226.800 162.711,227.066 162.277,227.392 162.007 C 228.284 161.267,229.200 159.217,229.200 157.962 C 229.200 157.349,229.380 156.736,229.600 156.600 C 230.954 155.763,229.816 146.541,228.192 145.193 C 227.866 144.923,227.600 144.122,227.600 143.413 C 227.600 142.632,227.285 141.839,226.800 141.400 C 226.360 141.002,226.000 140.434,226.000 140.138 C 226.000 139.842,225.758 139.600,225.462 139.600 C 225.166 139.600,224.598 139.240,224.200 138.800 C 223.802 138.360,223.065 138.000,222.562 138.000 C 222.059 138.000,221.536 137.820,221.400 137.600 C 221.264 137.380,220.634 137.200,220.000 137.200 C 219.366 137.200,218.736 137.380,218.600 137.600 " stroke="none" fill="#fcfcfc" fill-rule="evenodd"></path><path id="path1" d="M216.800 16.400 C 216.800 16.620,216.440 16.800,216.000 16.800 C 215.560 16.800,215.200 16.980,215.200 17.200 C 215.200 17.420,214.660 17.600,214.000 17.600 C 213.340 17.600,212.800 17.780,212.800 18.000 C 212.800 18.222,211.733 18.400,210.400 18.400 C 209.067 18.400,208.000 18.578,208.000 18.800 C 208.000 19.020,207.280 19.200,206.400 19.200 C 205.520 19.200,204.800 19.380,204.800 19.600 C 204.800 19.820,204.260 20.000,203.600 20.000 C 202.940 20.000,202.400 20.180,202.400 20.400 C 202.400 20.620,201.860 20.800,201.200 20.800 C 200.540 20.800,200.000 20.620,200.000 20.400 C 200.000 20.180,199.640 20.000,199.200 20.000 C 198.760 20.000,198.400 20.180,198.400 20.400 C 198.400 20.620,197.860 20.800,197.200 20.800 C 196.540 20.800,196.000 20.980,196.000 21.200 C 196.000 21.429,194.800 21.600,193.200 21.600 C 191.600 21.600,190.400 21.771,190.400 22.000 C 190.400 22.237,188.933 22.400,186.800 22.400 C 184.667 22.400,183.200 22.563,183.200 22.800 C 183.200 23.020,182.840 23.200,182.400 23.200 C 181.960 23.200,181.600 23.380,181.600 23.600 C 181.600 23.822,180.533 24.000,179.200 24.000 C 177.867 24.000,176.800 24.178,176.800 24.400 C 176.800 24.620,175.900 24.800,174.800 24.800 C 173.700 24.800,172.800 24.980,172.800 25.200 C 172.800 25.422,171.733 25.600,170.400 25.600 C 169.067 25.600,168.000 25.778,168.000 26.000 C 168.000 26.220,167.500 26.400,166.888 26.400 C 166.235 26.400,165.539 26.730,165.200 27.200 C 164.798 27.757,164.165 28.000,163.112 28.000 C 162.280 28.000,161.600 28.180,161.600 28.400 C 161.600 28.620,161.060 28.800,160.400 28.800 C 159.740 28.800,159.200 28.980,159.200 29.200 C 159.200 29.420,158.480 29.600,157.600 29.600 C 156.720 29.600,156.000 29.780,156.000 30.000 C 156.000 30.220,155.640 30.400,155.200 30.400 C 154.760 30.400,154.400 30.580,154.400 30.800 C 154.400 31.020,153.860 31.200,153.200 31.200 C 152.540 31.200,152.000 31.380,152.000 31.600 C 152.000 31.820,151.140 32.000,150.088 32.000 C 148.635 32.000,148.038 32.192,147.600 32.800 C 147.283 33.240,146.703 33.600,146.312 33.600 C 145.920 33.600,145.600 33.780,145.600 34.000 C 145.600 34.220,145.240 34.400,144.800 34.400 C 144.360 34.400,144.000 34.580,144.000 34.800 C 144.000 35.020,143.100 35.200,142.000 35.200 C 140.900 35.200,140.000 35.380,140.000 35.600 C 140.000 35.820,139.640 36.000,139.200 36.000 C 138.760 36.000,138.400 36.180,138.400 36.400 C 138.400 36.620,138.040 36.800,137.600 36.800 C 137.160 36.800,136.800 36.980,136.800 37.200 C 136.800 37.422,135.733 37.600,134.400 37.600 C 133.067 37.600,132.000 37.778,132.000 38.000 C 132.000 38.220,131.532 38.400,130.960 38.400 C 130.321 38.400,129.489 38.862,128.800 39.600 C 127.956 40.503,127.323 40.800,126.240 40.800 C 125.448 40.800,124.800 40.980,124.800 41.200 C 124.800 41.420,124.480 41.600,124.088 41.600 C 123.697 41.600,123.117 41.960,122.800 42.400 C 122.483 42.840,121.903 43.200,121.512 43.200 C 121.120 43.200,120.800 43.488,120.800 43.840 C 120.800 44.191,120.260 44.983,119.600 45.600 C 118.940 46.217,118.400 46.933,118.400 47.192 C 118.400 47.451,117.680 48.354,116.800 49.200 C 115.920 50.046,115.200 50.949,115.200 51.208 C 115.200 51.467,114.660 52.183,114.000 52.800 C 113.340 53.417,112.800 54.209,112.800 54.560 C 112.800 54.912,112.620 55.200,112.400 55.200 C 112.180 55.200,112.000 55.560,112.000 56.000 C 112.000 56.440,111.820 56.800,111.600 56.800 C 111.380 56.800,111.200 57.160,111.200 57.600 C 111.200 58.040,111.020 58.400,110.800 58.400 C 110.563 58.400,110.400 59.867,110.400 62.000 C 110.400 64.133,110.237 65.600,110.000 65.600 C 109.767 65.600,109.600 66.933,109.600 68.800 C 109.600 70.667,109.767 72.000,110.000 72.000 C 110.220 72.000,110.400 72.540,110.400 73.200 C 110.400 73.860,110.580 74.400,110.800 74.400 C 111.020 74.400,111.200 74.678,111.200 75.018 C 111.200 75.818,112.982 77.600,113.782 77.600 C 114.122 77.600,114.400 77.780,114.400 78.000 C 114.400 78.220,114.688 78.400,115.040 78.400 C 115.391 78.400,116.183 78.940,116.800 79.600 C 117.489 80.338,118.321 80.800,118.960 80.800 C 119.532 80.800,120.000 80.980,120.000 81.200 C 120.000 81.420,120.720 81.600,121.600 81.600 C 122.480 81.600,123.200 81.420,123.200 81.200 C 123.200 80.980,123.560 80.800,124.000 80.800 C 124.440 80.800,124.800 80.980,124.800 81.200 C 124.800 81.420,125.160 81.600,125.600 81.600 C 126.040 81.600,126.400 81.420,126.400 81.200 C 126.400 80.980,126.900 80.800,127.512 80.800 C 128.165 80.800,128.861 80.470,129.200 80.000 C 129.517 79.560,130.097 79.200,130.488 79.200 C 130.933 79.200,131.200 78.900,131.200 78.400 C 131.200 77.792,131.467 77.600,132.312 77.600 C 132.965 77.600,133.661 77.270,134.000 76.800 C 134.317 76.360,134.897 76.000,135.288 76.000 C 135.680 76.000,136.000 75.820,136.000 75.600 C 136.000 75.380,136.320 75.200,136.712 75.200 C 137.103 75.200,137.683 74.840,138.000 74.400 C 138.402 73.843,139.035 73.600,140.088 73.600 C 140.920 73.600,141.600 73.420,141.600 73.200 C 141.600 72.980,141.960 72.800,142.400 72.800 C 142.840 72.800,143.200 72.620,143.200 72.400 C 143.200 72.180,143.483 72.000,143.829 72.000 C 144.561 72.000,145.600 71.062,145.600 70.400 C 145.600 69.611,146.701 68.800,147.771 68.800 C 148.337 68.800,148.800 68.620,148.800 68.400 C 148.800 68.180,149.520 68.000,150.400 68.000 C 151.280 68.000,152.000 67.820,152.000 67.600 C 152.000 67.380,152.360 67.200,152.800 67.200 C 153.240 67.200,153.600 67.020,153.600 66.800 C 153.600 66.580,154.140 66.400,154.800 66.400 C 155.460 66.400,156.000 66.220,156.000 66.000 C 156.000 65.780,156.360 65.600,156.800 65.600 C 157.240 65.600,157.600 65.420,157.600 65.200 C 157.600 64.978,158.667 64.800,160.000 64.800 C 161.333 64.800,162.400 64.622,162.400 64.400 C 162.400 64.180,163.120 64.000,164.000 64.000 C 164.880 64.000,165.600 63.820,165.600 63.600 C 165.600 63.380,166.305 63.200,167.167 63.200 C 168.029 63.200,168.838 62.975,168.967 62.700 C 169.153 62.300,169.247 62.300,169.433 62.700 C 169.710 63.293,171.200 63.377,171.200 62.800 C 171.200 62.571,172.400 62.400,174.000 62.400 L 176.800 62.400 176.800 63.600 C 176.800 64.260,176.620 64.800,176.400 64.800 C 176.180 64.800,176.000 65.448,176.000 66.240 C 176.000 67.323,175.703 67.956,174.800 68.800 C 174.140 69.417,173.600 70.132,173.600 70.389 C 173.600 71.060,172.566 72.000,171.829 72.000 C 171.467 72.000,171.200 72.339,171.200 72.800 C 171.200 73.240,171.020 73.600,170.800 73.600 C 170.580 73.600,170.400 73.960,170.400 74.400 C 170.400 74.840,170.220 75.200,170.000 75.200 C 169.780 75.200,169.600 75.482,169.600 75.826 C 169.600 76.170,168.700 77.329,167.600 78.400 C 166.500 79.471,165.600 80.550,165.600 80.796 C 165.600 81.043,164.520 82.304,163.200 83.600 C 161.880 84.896,160.800 86.159,160.800 86.406 C 160.800 87.063,159.758 88.000,159.029 88.000 C 158.683 88.000,158.400 88.282,158.400 88.626 C 158.400 88.970,157.500 90.129,156.400 91.200 C 155.300 92.271,154.400 93.358,154.400 93.614 C 154.400 93.870,153.860 94.583,153.200 95.200 C 152.540 95.817,152.000 96.609,152.000 96.960 C 152.000 97.312,151.820 97.600,151.600 97.600 C 151.380 97.600,151.200 97.878,151.200 98.218 C 151.200 98.974,149.437 100.800,148.706 100.800 C 148.415 100.800,147.917 101.160,147.600 101.600 C 147.283 102.040,146.775 102.400,146.472 102.400 C 146.169 102.400,145.417 102.940,144.800 103.600 C 144.183 104.260,143.431 104.800,143.128 104.800 C 142.825 104.800,142.317 105.160,142.000 105.600 C 141.683 106.040,141.103 106.400,140.712 106.400 C 140.320 106.400,140.000 106.580,140.000 106.800 C 140.000 107.020,139.460 107.200,138.800 107.200 C 138.140 107.200,137.600 107.380,137.600 107.600 C 137.600 107.820,137.280 108.000,136.888 108.000 C 136.497 108.000,135.917 108.360,135.600 108.800 C 135.261 109.270,134.565 109.600,133.912 109.600 C 133.300 109.600,132.800 109.780,132.800 110.000 C 132.800 110.220,132.440 110.400,132.000 110.400 C 131.560 110.400,131.200 110.580,131.200 110.800 C 131.200 111.020,130.840 111.200,130.400 111.200 C 129.960 111.200,129.600 111.380,129.600 111.600 C 129.600 111.820,128.920 112.000,128.088 112.000 C 127.035 112.000,126.402 112.243,126.000 112.800 C 125.683 113.240,125.143 113.600,124.800 113.600 C 124.457 113.600,123.917 113.960,123.600 114.400 C 123.283 114.840,122.703 115.200,122.312 115.200 C 121.920 115.200,121.600 115.380,121.600 115.600 C 121.600 115.820,121.240 116.000,120.800 116.000 C 120.360 116.000,120.000 116.180,120.000 116.400 C 120.000 116.620,119.640 116.800,119.200 116.800 C 118.760 116.800,118.400 116.980,118.400 117.200 C 118.400 117.420,118.040 117.600,117.600 117.600 C 117.160 117.600,116.800 117.780,116.800 118.000 C 116.800 118.220,116.300 118.400,115.688 118.400 C 115.035 118.400,114.339 118.730,114.000 119.200 C 113.683 119.640,113.103 120.000,112.712 120.000 C 112.320 120.000,112.000 120.180,112.000 120.400 C 112.000 120.620,111.640 120.800,111.200 120.800 C 110.760 120.800,110.400 120.980,110.400 121.200 C 110.400 121.420,109.932 121.600,109.360 121.600 C 108.721 121.600,107.889 122.062,107.200 122.800 C 106.511 123.538,105.679 124.000,105.040 124.000 C 104.468 124.000,104.000 124.180,104.000 124.400 C 104.000 124.620,103.712 124.800,103.360 124.800 C 103.009 124.800,102.217 125.340,101.600 126.000 C 100.983 126.660,100.231 127.200,99.928 127.200 C 99.625 127.200,99.117 127.560,98.800 128.000 C 98.398 128.557,97.765 128.800,96.712 128.800 C 95.880 128.800,95.200 128.980,95.200 129.200 C 95.200 129.420,94.840 129.600,94.400 129.600 C 93.960 129.600,93.600 129.780,93.600 130.000 C 93.600 130.220,93.318 130.400,92.974 130.400 C 92.630 130.400,91.471 131.300,90.400 132.400 C 89.329 133.500,88.210 134.400,87.914 134.400 C 87.619 134.400,87.117 134.760,86.800 135.200 C 86.483 135.640,85.943 136.000,85.600 136.000 C 85.257 136.000,84.717 136.360,84.400 136.800 C 84.083 137.240,83.543 137.600,83.200 137.600 C 82.857 137.600,82.317 137.960,82.000 138.400 C 81.683 138.840,81.103 139.200,80.712 139.200 C 80.320 139.200,80.000 139.380,80.000 139.600 C 80.000 139.820,79.460 140.000,78.800 140.000 C 77.867 140.000,77.600 140.178,77.600 140.800 C 77.600 141.240,77.420 141.600,77.200 141.600 C 76.980 141.600,76.800 141.960,76.800 142.400 C 76.800 142.840,76.620 143.200,76.400 143.200 C 76.180 143.200,76.000 143.520,76.000 143.912 C 76.000 144.303,75.640 144.883,75.200 145.200 C 74.760 145.517,74.400 146.057,74.400 146.400 C 74.400 146.743,74.040 147.283,73.600 147.600 C 73.160 147.917,72.800 148.457,72.800 148.800 C 72.800 149.143,72.440 149.683,72.000 150.000 C 71.530 150.339,71.200 151.035,71.200 151.688 C 71.200 152.300,71.020 152.800,70.800 152.800 C 70.580 152.800,70.400 153.340,70.400 154.000 C 70.400 154.660,70.220 155.200,70.000 155.200 C 69.778 155.200,69.600 156.267,69.600 157.600 C 69.600 158.933,69.778 160.000,70.000 160.000 C 70.220 160.000,70.400 160.360,70.400 160.800 C 70.400 161.240,70.220 161.600,70.000 161.600 C 69.780 161.600,69.600 162.500,69.600 163.600 C 69.600 164.700,69.780 165.600,70.000 165.600 C 70.220 165.600,70.400 166.460,70.400 167.512 C 70.400 168.965,70.592 169.562,71.200 170.000 C 71.640 170.317,72.000 170.897,72.000 171.288 C 72.000 171.680,72.180 172.000,72.400 172.000 C 72.620 172.000,72.800 172.288,72.800 172.640 C 72.800 172.991,73.340 173.783,74.000 174.400 C 74.660 175.017,75.200 175.809,75.200 176.160 C 75.200 176.512,75.380 176.800,75.600 176.800 C 75.820 176.800,76.000 177.160,76.000 177.600 C 76.000 178.040,76.180 178.400,76.400 178.400 C 76.620 178.400,76.800 178.760,76.800 179.200 C 76.800 179.640,76.980 180.000,77.200 180.000 C 77.420 180.000,77.600 180.320,77.600 180.712 C 77.600 181.103,77.960 181.683,78.400 182.000 C 78.840 182.317,79.200 182.820,79.200 183.117 C 79.200 183.849,80.200 184.800,80.971 184.800 C 81.392 184.800,81.600 185.168,81.600 185.912 C 81.600 186.565,81.930 187.261,82.400 187.600 C 82.840 187.917,83.200 188.415,83.200 188.706 C 83.200 189.437,85.026 191.200,85.782 191.200 C 86.122 191.200,86.400 191.380,86.400 191.600 C 86.400 191.820,86.760 192.000,87.200 192.000 C 87.733 192.000,88.000 192.267,88.000 192.800 C 88.000 193.333,88.267 193.600,88.800 193.600 C 89.240 193.600,89.600 193.780,89.600 194.000 C 89.600 194.220,90.100 194.400,90.712 194.400 C 91.365 194.400,92.061 194.730,92.400 195.200 C 93.039 196.086,100.800 196.456,100.800 195.600 C 100.800 195.380,101.160 195.200,101.600 195.200 C 102.040 195.200,102.400 195.020,102.400 194.800 C 102.400 194.580,102.868 194.400,103.440 194.400 C 104.079 194.400,104.911 193.938,105.600 193.200 C 106.217 192.540,106.932 192.000,107.189 192.000 C 107.860 192.000,108.800 190.966,108.800 190.229 C 108.800 189.883,109.088 189.600,109.440 189.600 C 109.791 189.600,110.583 189.060,111.200 188.400 C 111.817 187.740,112.532 187.200,112.789 187.200 C 113.388 187.200,114.400 186.195,114.400 185.600 C 114.400 185.005,115.412 184.000,116.011 184.000 C 116.268 184.000,116.983 183.460,117.600 182.800 C 118.217 182.140,119.009 181.600,119.360 181.600 C 119.712 181.600,120.000 181.317,120.000 180.971 C 120.000 180.244,120.937 179.200,121.590 179.200 C 122.212 179.200,124.000 177.350,124.000 176.706 C 124.000 176.415,124.360 175.917,124.800 175.600 C 125.240 175.283,125.600 174.779,125.600 174.480 C 125.600 174.182,126.320 173.246,127.200 172.400 C 128.080 171.554,128.800 170.654,128.800 170.400 C 128.800 170.146,129.520 169.246,130.400 168.400 C 131.280 167.554,132.000 166.579,132.000 166.231 C 132.000 165.884,132.180 165.600,132.400 165.600 C 132.620 165.600,132.800 165.322,132.800 164.982 C 132.800 164.270,134.546 162.400,135.210 162.400 C 135.828 162.400,136.800 161.371,136.800 160.717 C 136.800 160.420,137.160 159.917,137.600 159.600 C 138.040 159.283,138.400 158.743,138.400 158.400 C 138.400 158.057,138.760 157.517,139.200 157.200 C 139.640 156.883,140.000 156.303,140.000 155.912 C 140.000 155.520,140.180 155.200,140.400 155.200 C 140.620 155.200,140.800 154.840,140.800 154.400 C 140.800 153.960,140.980 153.600,141.200 153.600 C 141.420 153.600,141.600 153.316,141.600 152.969 C 141.600 152.621,142.320 151.646,143.200 150.800 C 144.080 149.954,144.800 149.060,144.800 148.812 C 144.800 148.564,146.060 147.119,147.600 145.600 C 149.140 144.081,150.400 142.645,150.400 142.409 C 150.400 141.842,153.852 138.400,154.421 138.400 C 154.664 138.400,155.554 137.680,156.400 136.800 C 157.246 135.920,158.221 135.200,158.569 135.200 C 158.916 135.200,159.200 135.020,159.200 134.800 C 159.200 134.580,159.520 134.400,159.912 134.400 C 160.303 134.400,160.883 134.040,161.200 133.600 C 161.539 133.130,162.235 132.800,162.888 132.800 C 163.500 132.800,164.000 132.620,164.000 132.400 C 164.000 132.180,164.540 132.000,165.200 132.000 C 165.860 132.000,166.400 131.820,166.400 131.600 C 166.400 131.380,166.940 131.200,167.600 131.200 C 168.260 131.200,168.800 131.020,168.800 130.800 C 168.800 130.580,169.700 130.400,170.800 130.400 C 171.900 130.400,172.800 130.220,172.800 130.000 C 172.800 129.778,173.867 129.600,175.200 129.600 C 176.533 129.600,177.600 129.422,177.600 129.200 C 177.600 128.978,178.656 128.800,179.967 128.800 C 181.469 128.800,182.419 128.617,182.567 128.300 C 182.753 127.900,182.847 127.900,183.033 128.300 C 183.162 128.575,183.971 128.800,184.833 128.800 C 186.788 128.800,186.910 129.602,185.200 131.200 C 184.540 131.817,184.000 132.609,184.000 132.960 C 184.000 133.312,183.820 133.600,183.600 133.600 C 183.380 133.600,183.200 133.960,183.200 134.400 C 183.200 134.855,182.933 135.200,182.582 135.200 C 181.826 135.200,180.000 136.963,180.000 137.694 C 180.000 137.985,179.640 138.483,179.200 138.800 C 178.760 139.117,178.400 139.625,178.400 139.928 C 178.400 140.231,177.860 140.983,177.200 141.600 C 176.540 142.217,176.000 143.009,176.000 143.360 C 176.000 143.712,175.820 144.000,175.600 144.000 C 175.380 144.000,175.200 144.284,175.200 144.631 C 175.200 144.979,174.480 145.954,173.600 146.800 C 172.720 147.646,172.000 148.549,172.000 148.808 C 172.000 149.067,171.460 149.783,170.800 150.400 C 170.140 151.017,169.600 151.737,169.600 152.000 C 169.600 152.263,169.060 152.983,168.400 153.600 C 167.740 154.217,167.200 155.009,167.200 155.360 C 167.200 155.712,167.020 156.000,166.800 156.000 C 166.580 156.000,166.400 156.360,166.400 156.800 C 166.400 157.240,166.220 157.600,166.000 157.600 C 165.780 157.600,165.600 157.920,165.600 158.312 C 165.600 158.703,165.240 159.283,164.800 159.600 C 164.360 159.917,164.000 160.497,164.000 160.888 C 164.000 161.280,163.820 161.600,163.600 161.600 C 163.380 161.600,163.200 161.960,163.200 162.400 C 163.200 162.840,163.020 163.200,162.800 163.200 C 162.580 163.200,162.400 163.740,162.400 164.400 C 162.400 165.060,162.220 165.600,162.000 165.600 C 161.780 165.600,161.600 165.960,161.600 166.400 C 161.600 166.840,161.420 167.200,161.200 167.200 C 160.980 167.200,160.800 167.560,160.800 168.000 C 160.800 168.440,160.620 168.800,160.400 168.800 C 160.180 168.800,160.000 169.160,160.000 169.600 C 160.000 170.040,159.820 170.400,159.600 170.400 C 159.380 170.400,159.200 171.120,159.200 172.000 C 159.200 172.880,159.020 173.600,158.800 173.600 C 158.578 173.600,158.400 174.667,158.400 176.000 C 158.400 177.333,158.222 178.400,158.000 178.400 C 157.780 178.400,157.600 179.120,157.600 180.000 C 157.600 180.880,157.780 181.600,158.000 181.600 C 158.233 181.600,158.400 182.933,158.400 184.800 C 158.400 186.667,158.567 188.000,158.800 188.000 C 159.020 188.000,159.200 188.288,159.200 188.640 C 159.200 188.991,159.740 189.783,160.400 190.400 C 161.060 191.017,161.600 191.809,161.600 192.160 C 161.600 192.512,161.780 192.800,162.000 192.800 C 162.220 192.800,162.400 193.160,162.400 193.600 C 162.400 194.040,162.580 194.400,162.800 194.400 C 163.020 194.400,163.200 194.678,163.200 195.018 C 163.200 196.138,165.066 197.600,166.494 197.600 C 167.365 197.600,168.022 197.876,168.400 198.400 C 168.717 198.840,169.257 199.200,169.600 199.200 C 169.943 199.200,170.483 199.560,170.800 200.000 C 171.117 200.440,171.697 200.800,172.088 200.800 C 172.480 200.800,172.800 200.980,172.800 201.200 C 172.800 201.429,174.000 201.600,175.600 201.600 C 177.200 201.600,178.400 201.771,178.400 202.000 C 178.400 202.220,178.760 202.400,179.200 202.400 C 179.640 202.400,180.000 202.580,180.000 202.800 C 180.000 203.020,180.360 203.200,180.800 203.200 C 181.240 203.200,181.600 203.020,181.600 202.800 C 181.600 202.578,182.667 202.400,184.000 202.400 C 185.333 202.400,186.400 202.578,186.400 202.800 C 186.400 203.055,189.600 203.200,195.200 203.200 C 200.800 203.200,204.000 203.055,204.000 202.800 C 204.000 202.580,204.720 202.400,205.600 202.400 C 206.480 202.400,207.200 202.220,207.200 202.000 C 207.200 201.780,207.920 201.600,208.800 201.600 C 209.680 201.600,210.400 201.420,210.400 201.200 C 210.400 200.971,211.600 200.800,213.200 200.800 C 214.800 200.800,216.000 200.629,216.000 200.400 C 216.000 200.180,216.720 200.000,217.600 200.000 C 218.480 200.000,219.200 199.820,219.200 199.600 C 219.200 199.380,219.740 199.200,220.400 199.200 C 221.060 199.200,221.600 199.020,221.600 198.800 C 221.600 198.580,221.920 198.400,222.312 198.400 C 222.703 198.400,223.283 198.040,223.600 197.600 C 223.917 197.160,224.497 196.800,224.888 196.800 C 225.280 196.800,225.600 196.620,225.600 196.400 C 225.600 196.180,225.960 196.000,226.400 196.000 C 226.840 196.000,227.200 195.820,227.200 195.600 C 227.200 195.380,227.920 195.200,228.800 195.200 C 229.680 195.200,230.400 195.020,230.400 194.800 C 230.400 194.580,230.720 194.400,231.112 194.400 C 231.503 194.400,232.083 194.040,232.400 193.600 C 232.717 193.160,233.297 192.800,233.688 192.800 C 234.080 192.800,234.400 192.620,234.400 192.400 C 234.400 192.180,234.683 192.000,235.029 192.000 C 235.837 192.000,236.800 191.037,236.800 190.229 C 236.800 189.883,237.120 189.600,237.512 189.600 C 237.903 189.600,238.483 189.240,238.800 188.800 C 239.117 188.360,239.612 188.000,239.899 188.000 C 240.517 188.000,244.000 184.607,244.000 184.006 C 244.000 183.446,252.273 175.200,252.835 175.200 C 253.079 175.200,253.783 174.660,254.400 174.000 C 255.017 173.340,255.912 172.800,256.389 172.800 C 257.406 172.800,258.400 171.924,258.400 171.029 C 258.400 170.683,258.580 170.400,258.800 170.400 C 259.020 170.400,259.200 170.118,259.200 169.774 C 259.200 169.430,260.100 168.271,261.200 167.200 C 262.300 166.129,263.200 164.970,263.200 164.626 C 263.200 164.282,263.483 164.000,263.829 164.000 C 264.637 164.000,265.600 163.037,265.600 162.229 C 265.600 161.883,265.780 161.600,266.000 161.600 C 266.220 161.600,266.400 161.280,266.400 160.888 C 266.400 160.497,266.760 159.917,267.200 159.600 C 267.640 159.283,268.000 158.703,268.000 158.312 C 268.000 157.920,268.180 157.600,268.400 157.600 C 268.620 157.600,268.800 157.240,268.800 156.800 C 268.800 156.360,268.980 156.000,269.200 156.000 C 269.420 156.000,269.600 155.640,269.600 155.200 C 269.600 154.760,269.780 154.400,270.000 154.400 C 270.220 154.400,270.400 154.040,270.400 153.600 C 270.400 153.160,270.580 152.800,270.800 152.800 C 271.020 152.800,271.200 152.440,271.200 152.000 C 271.200 151.560,271.380 151.200,271.600 151.200 C 271.820 151.200,272.000 150.340,272.000 149.288 C 272.000 147.835,272.192 147.238,272.800 146.800 C 273.441 146.338,273.600 145.765,273.600 143.912 C 273.600 142.637,273.779 141.600,274.000 141.600 C 274.220 141.600,274.400 141.060,274.400 140.400 C 274.400 139.740,274.580 139.200,274.800 139.200 C 275.052 139.200,275.200 136.457,275.200 131.771 C 275.200 125.867,275.317 124.226,275.771 123.771 C 276.421 123.122,278.400 122.993,278.400 123.600 C 278.400 123.820,278.760 124.000,279.200 124.000 C 279.640 124.000,280.000 124.180,280.000 124.400 C 280.000 124.620,280.360 124.800,280.800 124.800 C 281.240 124.800,281.600 124.980,281.600 125.200 C 281.600 125.420,281.960 125.600,282.400 125.600 C 282.840 125.600,283.200 125.780,283.200 126.000 C 283.200 126.220,283.488 126.400,283.840 126.400 C 284.191 126.400,284.983 126.940,285.600 127.600 C 286.217 128.260,287.009 128.800,287.360 128.800 C 287.712 128.800,288.000 128.980,288.000 129.200 C 288.000 129.420,288.284 129.600,288.631 129.600 C 288.979 129.600,289.954 130.320,290.800 131.200 C 291.646 132.080,292.534 132.800,292.774 132.800 C 293.330 132.800,300.000 139.448,300.000 140.002 C 300.000 140.654,305.118 145.600,305.793 145.600 C 306.133 145.600,306.400 145.951,306.400 146.400 C 306.400 146.840,306.580 147.200,306.800 147.200 C 307.020 147.200,307.200 147.920,307.200 148.800 C 307.200 149.680,307.380 150.400,307.600 150.400 C 307.820 150.400,308.000 150.760,308.000 151.200 C 308.000 151.640,308.180 152.000,308.400 152.000 C 308.620 152.000,308.800 152.540,308.800 153.200 C 308.800 153.860,308.980 154.400,309.200 154.400 C 309.420 154.400,309.600 155.120,309.600 156.000 C 309.600 156.880,309.780 157.600,310.000 157.600 C 310.254 157.600,310.400 160.667,310.400 166.000 C 310.400 171.333,310.254 174.400,310.000 174.400 C 309.778 174.400,309.600 175.467,309.600 176.800 C 309.600 178.133,309.422 179.200,309.200 179.200 C 308.623 179.200,308.707 180.690,309.300 180.967 C 309.700 181.153,309.700 181.247,309.300 181.433 C 308.999 181.574,308.800 182.451,308.800 183.633 C 308.800 184.715,308.620 185.600,308.400 185.600 C 308.180 185.600,308.000 186.500,308.000 187.600 C 308.000 188.700,307.820 189.600,307.600 189.600 C 307.380 189.600,307.200 190.140,307.200 190.800 C 307.200 191.460,307.020 192.000,306.800 192.000 C 306.571 192.000,306.400 193.200,306.400 194.800 C 306.400 196.400,306.229 197.600,306.000 197.600 C 305.767 197.600,305.600 198.933,305.600 200.800 C 305.600 202.667,305.433 204.000,305.200 204.000 C 304.980 204.000,304.800 204.540,304.800 205.200 C 304.800 205.860,304.620 206.400,304.400 206.400 C 304.180 206.400,304.000 206.760,304.000 207.200 C 304.000 207.640,303.820 208.000,303.600 208.000 C 303.380 208.000,303.200 208.360,303.200 208.800 C 303.200 209.240,303.020 209.600,302.800 209.600 C 302.580 209.600,302.400 210.140,302.400 210.800 C 302.400 211.460,302.220 212.000,302.000 212.000 C 301.780 212.000,301.600 212.680,301.600 213.512 C 301.600 214.565,301.357 215.198,300.800 215.600 C 300.330 215.939,300.000 216.635,300.000 217.288 C 300.000 217.900,299.820 218.400,299.600 218.400 C 299.380 218.400,299.200 218.940,299.200 219.600 C 299.200 220.260,299.020 220.800,298.800 220.800 C 298.580 220.800,298.400 221.300,298.400 221.912 C 298.400 222.565,298.070 223.261,297.600 223.600 C 297.160 223.917,296.800 224.497,296.800 224.888 C 296.800 225.280,296.620 225.600,296.400 225.600 C 296.180 225.600,296.000 225.960,296.000 226.400 C 296.000 226.840,295.820 227.200,295.600 227.200 C 295.380 227.200,295.200 227.740,295.200 228.400 C 295.200 229.060,295.020 229.600,294.800 229.600 C 294.580 229.600,294.400 230.140,294.400 230.800 C 294.400 231.460,294.220 232.000,294.000 232.000 C 293.780 232.000,293.600 232.720,293.600 233.600 C 293.600 234.480,293.420 235.200,293.200 235.200 C 292.980 235.200,292.800 235.520,292.800 235.912 C 292.800 236.303,292.440 236.883,292.000 237.200 C 291.560 237.517,291.200 238.097,291.200 238.488 C 291.200 238.880,291.020 239.200,290.800 239.200 C 290.580 239.200,290.400 239.488,290.400 239.840 C 290.400 240.191,289.860 240.983,289.200 241.600 C 288.540 242.217,288.000 243.009,288.000 243.360 C 288.000 243.712,287.820 244.000,287.600 244.000 C 287.380 244.000,287.200 244.360,287.200 244.800 C 287.200 245.333,286.933 245.600,286.400 245.600 C 285.867 245.600,285.600 245.867,285.600 246.400 C 285.600 246.840,285.420 247.200,285.200 247.200 C 284.980 247.200,284.800 247.560,284.800 248.000 C 284.800 248.440,284.620 248.800,284.400 248.800 C 284.180 248.800,284.000 249.088,284.000 249.440 C 284.000 249.791,283.460 250.583,282.800 251.200 C 282.140 251.817,281.600 252.533,281.600 252.792 C 281.600 253.051,280.880 253.954,280.000 254.800 C 279.120 255.646,278.400 256.546,278.400 256.800 C 278.400 257.054,277.680 257.954,276.800 258.800 C 275.920 259.646,275.200 260.539,275.200 260.786 C 275.200 261.032,273.760 262.659,272.000 264.400 C 270.240 266.141,268.800 267.765,268.800 268.009 C 268.800 268.253,267.900 269.329,266.800 270.400 C 265.700 271.471,264.800 272.550,264.800 272.796 C 264.800 273.043,263.720 274.304,262.400 275.600 C 261.080 276.896,260.000 278.154,260.000 278.396 C 260.000 278.968,258.168 280.800,257.596 280.800 C 257.354 280.800,256.096 281.880,254.800 283.200 C 253.504 284.520,252.246 285.600,252.004 285.600 C 251.344 285.600,249.600 287.474,249.600 288.182 C 249.600 288.533,249.255 288.800,248.800 288.800 C 248.360 288.800,248.000 288.980,248.000 289.200 C 248.000 289.420,247.722 289.600,247.382 289.600 C 246.670 289.600,244.800 291.346,244.800 292.010 C 244.800 292.628,243.771 293.600,243.117 293.600 C 242.820 293.600,242.317 293.960,242.000 294.400 C 241.683 294.840,241.103 295.200,240.712 295.200 C 240.267 295.200,240.000 295.500,240.000 296.000 C 240.000 296.533,239.733 296.800,239.200 296.800 C 238.760 296.800,238.400 296.980,238.400 297.200 C 238.400 297.420,238.120 297.600,237.778 297.600 C 237.436 297.600,236.096 298.680,234.800 300.000 C 233.504 301.320,232.204 302.400,231.910 302.400 C 231.617 302.400,231.117 302.760,230.800 303.200 C 230.483 303.640,229.943 304.000,229.600 304.000 C 229.257 304.000,228.717 304.360,228.400 304.800 C 228.083 305.240,227.579 305.600,227.280 305.600 C 226.982 305.600,226.046 306.320,225.200 307.200 C 224.338 308.097,223.284 308.800,222.800 308.800 C 222.316 308.800,221.262 309.503,220.400 310.400 C 219.554 311.280,218.651 312.000,218.392 312.000 C 218.133 312.000,217.417 312.540,216.800 313.200 C 216.183 313.860,215.463 314.400,215.200 314.400 C 214.937 314.400,214.217 314.940,213.600 315.600 C 212.983 316.260,212.263 316.800,212.000 316.800 C 211.737 316.800,211.017 317.340,210.400 318.000 C 209.762 318.683,208.869 319.200,208.328 319.200 C 207.805 319.200,207.117 319.560,206.800 320.000 C 206.483 320.440,205.903 320.800,205.512 320.800 C 205.120 320.800,204.800 320.980,204.800 321.200 C 204.800 321.420,204.332 321.600,203.760 321.600 C 203.121 321.600,202.289 322.062,201.600 322.800 C 200.983 323.460,200.231 324.000,199.928 324.000 C 199.625 324.000,199.117 324.360,198.800 324.800 C 198.483 325.240,197.903 325.600,197.512 325.600 C 197.120 325.600,196.800 325.780,196.800 326.000 C 196.800 326.220,196.512 326.400,196.160 326.400 C 195.809 326.400,195.017 326.940,194.400 327.600 C 193.783 328.260,192.991 328.800,192.640 328.800 C 192.288 328.800,192.000 328.980,192.000 329.200 C 192.000 329.420,191.640 329.600,191.200 329.600 C 190.760 329.600,190.400 329.780,190.400 330.000 C 190.400 330.220,190.080 330.400,189.688 330.400 C 189.297 330.400,188.717 330.760,188.400 331.200 C 188.083 331.640,187.503 332.000,187.112 332.000 C 186.720 332.000,186.400 332.180,186.400 332.400 C 186.400 332.620,186.080 332.800,185.688 332.800 C 185.297 332.800,184.717 333.160,184.400 333.600 C 184.083 334.040,183.543 334.400,183.200 334.400 C 182.857 334.400,182.317 334.760,182.000 335.200 C 181.683 335.640,181.143 336.000,180.800 336.000 C 180.457 336.000,179.917 336.360,179.600 336.800 C 179.283 337.240,178.703 337.600,178.312 337.600 C 177.920 337.600,177.600 337.780,177.600 338.000 C 177.600 338.220,177.060 338.400,176.400 338.400 C 175.740 338.400,175.200 338.580,175.200 338.800 C 175.200 339.020,174.880 339.200,174.488 339.200 C 174.097 339.200,173.517 339.560,173.200 340.000 C 172.861 340.470,172.165 340.800,171.512 340.800 C 170.900 340.800,170.400 340.980,170.400 341.200 C 170.400 341.420,170.080 341.600,169.688 341.600 C 169.297 341.600,168.717 341.960,168.400 342.400 C 168.083 342.840,167.503 343.200,167.112 343.200 C 166.720 343.200,166.400 343.380,166.400 343.600 C 166.400 343.820,165.860 344.000,165.200 344.000 C 164.540 344.000,164.000 344.180,164.000 344.400 C 164.000 344.620,163.680 344.800,163.288 344.800 C 162.897 344.800,162.317 345.160,162.000 345.600 C 161.683 346.040,161.103 346.400,160.712 346.400 C 160.320 346.400,160.000 346.580,160.000 346.800 C 160.000 347.020,159.640 347.200,159.200 347.200 C 158.760 347.200,158.400 347.380,158.400 347.600 C 158.400 347.820,157.720 348.000,156.888 348.000 C 155.835 348.000,155.202 348.243,154.800 348.800 C 154.398 349.357,153.765 349.600,152.712 349.600 C 151.880 349.600,151.200 349.780,151.200 350.000 C 151.200 350.220,150.660 350.400,150.000 350.400 C 149.340 350.400,148.800 350.580,148.800 350.800 C 148.800 351.020,148.260 351.200,147.600 351.200 C 146.940 351.200,146.400 351.380,146.400 351.600 C 146.400 351.820,145.860 352.000,145.200 352.000 C 144.540 352.000,144.000 352.180,144.000 352.400 C 144.000 352.620,143.640 352.800,143.200 352.800 C 142.760 352.800,142.400 352.980,142.400 353.200 C 142.400 353.433,141.067 353.600,139.200 353.600 C 137.333 353.600,136.000 353.767,136.000 354.000 C 136.000 354.237,134.533 354.400,132.400 354.400 C 130.267 354.400,128.800 354.237,128.800 354.000 C 128.800 353.780,128.440 353.600,128.000 353.600 C 127.467 353.600,127.200 353.333,127.200 352.800 C 127.200 352.267,126.933 352.000,126.400 352.000 C 125.960 352.000,125.600 351.820,125.600 351.600 C 125.600 351.358,123.867 351.200,121.200 351.200 C 118.533 351.200,116.800 351.358,116.800 351.600 C 116.800 351.820,116.080 352.000,115.200 352.000 C 114.320 352.000,113.600 352.180,113.600 352.400 C 113.600 352.620,113.312 352.800,112.960 352.800 C 112.609 352.800,111.817 353.340,111.200 354.000 C 110.583 354.660,109.683 355.200,109.200 355.200 C 108.717 355.200,107.817 355.740,107.200 356.400 C 106.583 357.060,105.791 357.600,105.440 357.600 C 105.088 357.600,104.800 357.780,104.800 358.000 C 104.800 358.220,104.480 358.400,104.088 358.400 C 103.697 358.400,103.117 358.760,102.800 359.200 C 102.483 359.640,101.903 360.000,101.512 360.000 C 101.120 360.000,100.800 360.180,100.800 360.400 C 100.800 360.620,100.512 360.800,100.160 360.800 C 99.809 360.800,99.017 361.340,98.400 362.000 C 97.783 362.660,96.898 363.200,96.433 363.200 C 95.453 363.200,89.600 368.848,89.600 369.794 C 89.600 370.127,89.322 370.400,88.982 370.400 C 88.226 370.400,86.400 372.163,86.400 372.894 C 86.400 373.185,86.040 373.683,85.600 374.000 C 85.130 374.339,84.800 375.035,84.800 375.688 C 84.800 376.300,84.620 376.800,84.400 376.800 C 84.180 376.800,84.000 377.798,84.000 379.018 C 84.000 381.345,85.145 383.200,86.582 383.200 C 86.933 383.200,87.200 383.545,87.200 384.000 C 87.200 384.440,87.380 384.800,87.600 384.800 C 87.820 384.800,88.000 385.160,88.000 385.600 C 88.000 386.040,88.180 386.400,88.400 386.400 C 88.620 386.400,88.800 386.683,88.800 387.029 C 88.800 388.146,89.884 388.800,91.738 388.800 C 92.799 388.800,93.616 389.004,93.736 389.300 C 93.889 389.678,94.052 389.653,94.400 389.200 C 94.748 388.747,94.911 388.722,95.064 389.100 C 95.194 389.421,96.115 389.600,97.633 389.600 C 98.944 389.600,100.000 389.778,100.000 390.000 C 100.000 390.220,100.720 390.400,101.600 390.400 C 102.480 390.400,103.200 390.580,103.200 390.800 C 103.200 391.020,103.740 391.200,104.400 391.200 C 105.060 391.200,105.600 391.020,105.600 390.800 C 105.600 390.580,105.960 390.400,106.400 390.400 C 106.840 390.400,107.200 390.220,107.200 390.000 C 107.200 389.780,107.920 389.600,108.800 389.600 C 109.680 389.600,110.400 389.420,110.400 389.200 C 110.400 388.980,110.940 388.800,111.600 388.800 C 112.260 388.800,112.800 388.620,112.800 388.400 C 112.800 388.180,113.160 388.000,113.600 388.000 C 114.040 388.000,114.400 387.820,114.400 387.600 C 114.400 387.380,114.900 387.200,115.512 387.200 C 116.165 387.200,116.861 386.870,117.200 386.400 C 117.679 385.735,118.235 385.600,120.488 385.600 C 122.029 385.600,123.200 385.427,123.200 385.200 C 123.200 384.980,123.740 384.800,124.400 384.800 C 125.060 384.800,125.600 384.620,125.600 384.400 C 125.600 384.180,126.320 384.000,127.200 384.000 C 128.080 384.000,128.800 383.820,128.800 383.600 C 128.800 383.378,129.867 383.200,131.200 383.200 C 132.533 383.200,133.600 383.022,133.600 382.800 C 133.600 382.580,133.960 382.400,134.400 382.400 C 134.840 382.400,135.200 382.220,135.200 382.000 C 135.200 381.780,135.740 381.600,136.400 381.600 C 137.060 381.600,137.600 381.420,137.600 381.200 C 137.600 380.980,137.960 380.800,138.400 380.800 C 138.840 380.800,139.200 380.620,139.200 380.400 C 139.200 380.180,139.560 380.000,140.000 380.000 C 140.440 380.000,140.800 379.820,140.800 379.600 C 140.800 379.380,141.340 379.200,142.000 379.200 C 142.660 379.200,143.200 379.020,143.200 378.800 C 143.200 378.580,143.740 378.400,144.400 378.400 C 145.060 378.400,145.600 378.220,145.600 378.000 C 145.600 377.780,146.140 377.600,146.800 377.600 C 147.460 377.600,148.000 377.420,148.000 377.200 C 148.000 376.980,148.360 376.800,148.800 376.800 C 149.240 376.800,149.600 376.620,149.600 376.400 C 149.600 376.180,149.960 376.000,150.400 376.000 C 150.840 376.000,151.200 375.820,151.200 375.600 C 151.200 375.380,151.700 375.200,152.312 375.200 C 152.965 375.200,153.661 374.870,154.000 374.400 C 154.317 373.960,154.897 373.600,155.288 373.600 C 155.680 373.600,156.000 373.420,156.000 373.200 C 156.000 372.980,156.360 372.800,156.800 372.800 C 157.240 372.800,157.600 372.620,157.600 372.400 C 157.600 372.180,157.960 372.000,158.400 372.000 C 158.840 372.000,159.200 371.820,159.200 371.600 C 159.200 371.380,159.560 371.200,160.000 371.200 C 160.440 371.200,160.800 371.020,160.800 370.800 C 160.800 370.580,161.300 370.400,161.912 370.400 C 162.565 370.400,163.261 370.070,163.600 369.600 C 163.918 369.159,164.635 368.800,165.200 368.800 C 165.765 368.800,166.482 368.441,166.800 368.000 C 167.117 367.560,167.657 367.200,168.000 367.200 C 168.343 367.200,168.883 366.840,169.200 366.400 C 169.517 365.960,170.097 365.600,170.488 365.600 C 170.880 365.600,171.200 365.420,171.200 365.200 C 171.200 364.980,171.740 364.800,172.400 364.800 C 173.060 364.800,173.600 364.620,173.600 364.400 C 173.600 364.180,173.920 364.000,174.312 364.000 C 174.703 364.000,175.283 363.640,175.600 363.200 C 175.918 362.759,176.635 362.400,177.200 362.400 C 177.765 362.400,178.482 362.041,178.800 361.600 C 179.117 361.160,179.657 360.800,180.000 360.800 C 180.343 360.800,180.883 360.440,181.200 360.000 C 181.591 359.458,182.235 359.200,183.200 359.200 C 184.165 359.200,184.809 358.942,185.200 358.400 C 185.517 357.960,186.201 357.600,186.720 357.600 C 187.297 357.600,188.259 356.980,189.200 356.000 C 190.046 355.120,190.982 354.400,191.280 354.400 C 191.579 354.400,192.083 354.040,192.400 353.600 C 192.717 353.160,193.297 352.800,193.688 352.800 C 194.080 352.800,194.400 352.620,194.400 352.400 C 194.400 352.180,194.760 352.000,195.200 352.000 C 195.640 352.000,196.000 351.820,196.000 351.600 C 196.000 351.380,196.320 351.200,196.712 351.200 C 197.103 351.200,197.683 350.840,198.000 350.400 C 198.317 349.960,198.857 349.600,199.200 349.600 C 199.543 349.600,200.083 349.240,200.400 348.800 C 200.717 348.360,201.257 348.000,201.600 348.000 C 201.943 348.000,202.483 347.640,202.800 347.200 C 203.117 346.760,203.657 346.400,204.000 346.400 C 204.343 346.400,204.883 346.040,205.200 345.600 C 205.517 345.160,206.097 344.800,206.488 344.800 C 206.880 344.800,207.200 344.620,207.200 344.400 C 207.200 344.180,207.560 344.000,208.000 344.000 C 208.533 344.000,208.800 343.733,208.800 343.200 C 208.800 342.533,209.067 342.400,210.400 342.400 C 211.588 342.400,212.000 342.238,212.000 341.771 C 212.000 340.827,213.014 340.000,214.171 340.000 C 214.737 340.000,215.200 339.820,215.200 339.600 C 215.200 339.380,215.520 339.200,215.912 339.200 C 216.303 339.200,216.883 338.840,217.200 338.400 C 217.517 337.960,218.025 337.600,218.328 337.600 C 218.631 337.600,219.383 337.060,220.000 336.400 C 220.617 335.740,221.409 335.200,221.760 335.200 C 222.112 335.200,222.400 335.020,222.400 334.800 C 222.400 334.580,222.688 334.400,223.040 334.400 C 223.391 334.400,224.183 333.860,224.800 333.200 C 225.417 332.540,226.313 332.000,226.792 332.000 C 227.285 332.000,228.330 331.306,229.200 330.400 C 230.046 329.520,231.021 328.800,231.369 328.800 C 231.716 328.800,232.000 328.620,232.000 328.400 C 232.000 328.180,232.288 328.000,232.640 328.000 C 232.991 328.000,233.783 327.460,234.400 326.800 C 235.017 326.140,235.913 325.600,236.392 325.600 C 236.885 325.600,237.930 324.906,238.800 324.000 C 239.646 323.120,240.582 322.400,240.880 322.400 C 241.179 322.400,241.683 322.040,242.000 321.600 C 242.317 321.160,242.857 320.800,243.200 320.800 C 243.543 320.800,244.083 320.440,244.400 320.000 C 244.717 319.560,245.297 319.200,245.688 319.200 C 246.080 319.200,246.400 318.917,246.400 318.571 C 246.400 317.800,247.351 316.800,248.083 316.800 C 248.380 316.800,248.883 316.440,249.200 316.000 C 249.517 315.560,250.019 315.200,250.314 315.200 C 250.610 315.200,251.729 314.300,252.800 313.200 C 253.871 312.100,255.030 311.200,255.374 311.200 C 255.718 311.200,256.000 311.020,256.000 310.800 C 256.000 310.580,256.288 310.400,256.640 310.400 C 256.991 310.400,257.783 309.860,258.400 309.200 C 259.017 308.540,259.769 308.000,260.072 308.000 C 260.375 308.000,260.883 307.640,261.200 307.200 C 261.517 306.760,262.015 306.400,262.305 306.400 C 262.596 306.400,264.259 304.960,266.000 303.200 C 267.741 301.440,269.404 300.000,269.695 300.000 C 269.985 300.000,270.483 299.640,270.800 299.200 C 271.117 298.760,271.697 298.400,272.088 298.400 C 272.480 298.400,272.800 298.122,272.800 297.782 C 272.800 297.064,274.548 295.200,275.221 295.200 C 275.473 295.200,276.183 294.660,276.800 294.000 C 277.417 293.340,278.132 292.800,278.389 292.800 C 279.060 292.800,280.000 291.766,280.000 291.029 C 280.000 290.683,280.278 290.400,280.618 290.400 C 281.324 290.400,283.200 288.656,283.200 288.000 C 283.200 287.422,285.039 285.600,285.621 285.600 C 285.873 285.600,286.583 285.060,287.200 284.400 C 287.817 283.740,288.532 283.200,288.789 283.200 C 289.379 283.200,290.400 282.199,290.400 281.620 C 290.400 280.952,294.699 276.800,295.391 276.800 C 295.726 276.800,296.000 276.526,296.000 276.191 C 296.000 275.399,300.199 271.200,300.991 271.200 C 301.333 271.200,301.600 270.850,301.600 270.400 C 301.600 269.960,301.780 269.600,302.000 269.600 C 302.220 269.600,302.400 269.321,302.400 268.981 C 302.400 268.640,303.660 267.119,305.200 265.600 C 306.740 264.081,308.000 262.560,308.000 262.219 C 308.000 261.879,308.180 261.600,308.400 261.600 C 308.620 261.600,308.800 261.321,308.800 260.981 C 308.800 260.640,310.060 259.119,311.600 257.600 C 313.140 256.081,314.400 254.560,314.400 254.219 C 314.400 253.879,314.580 253.600,314.800 253.600 C 315.020 253.600,315.200 253.240,315.200 252.800 C 315.200 252.267,315.467 252.000,316.000 252.000 C 316.533 252.000,316.800 251.733,316.800 251.200 C 316.800 250.760,316.980 250.400,317.200 250.400 C 317.420 250.400,317.600 250.112,317.600 249.760 C 317.600 249.409,318.140 248.617,318.800 248.000 C 319.460 247.383,320.000 246.631,320.000 246.328 C 320.000 246.025,320.360 245.517,320.800 245.200 C 321.240 244.883,321.600 244.343,321.600 244.000 C 321.600 243.657,321.960 243.117,322.400 242.800 C 322.840 242.483,323.200 241.903,323.200 241.512 C 323.200 241.120,323.380 240.800,323.600 240.800 C 323.820 240.800,324.000 240.440,324.000 240.000 C 324.000 239.560,324.180 239.200,324.400 239.200 C 324.620 239.200,324.800 238.912,324.800 238.560 C 324.800 238.209,325.340 237.417,326.000 236.800 C 326.683 236.162,327.200 235.269,327.200 234.728 C 327.200 234.205,327.560 233.517,328.000 233.200 C 328.440 232.883,328.800 232.303,328.800 231.912 C 328.800 231.520,328.980 231.200,329.200 231.200 C 329.420 231.200,329.600 230.840,329.600 230.400 C 329.600 229.960,329.780 229.600,330.000 229.600 C 330.220 229.600,330.400 229.132,330.400 228.560 C 330.400 227.921,330.862 227.089,331.600 226.400 C 332.260 225.783,332.800 224.991,332.800 224.640 C 332.800 224.288,332.980 224.000,333.200 224.000 C 333.420 224.000,333.600 223.460,333.600 222.800 C 333.600 222.140,333.780 221.600,334.000 221.600 C 334.220 221.600,334.400 221.240,334.400 220.800 C 334.400 220.360,334.580 220.000,334.800 220.000 C 335.020 220.000,335.200 219.680,335.200 219.288 C 335.200 218.897,335.560 218.317,336.000 218.000 C 336.440 217.683,336.800 217.103,336.800 216.712 C 336.800 216.320,336.980 216.000,337.200 216.000 C 337.420 216.000,337.600 215.460,337.600 214.800 C 337.600 214.140,337.780 213.600,338.000 213.600 C 338.220 213.600,338.400 213.240,338.400 212.800 C 338.400 212.360,338.580 212.000,338.800 212.000 C 339.020 212.000,339.200 211.460,339.200 210.800 C 339.200 210.140,339.380 209.600,339.600 209.600 C 339.820 209.600,340.000 209.240,340.000 208.800 C 340.000 208.360,340.180 208.000,340.400 208.000 C 340.620 208.000,340.800 207.640,340.800 207.200 C 340.800 206.760,340.980 206.400,341.200 206.400 C 341.420 206.400,341.600 205.860,341.600 205.200 C 341.600 204.540,341.780 204.000,342.000 204.000 C 342.220 204.000,342.400 203.460,342.400 202.800 C 342.400 202.140,342.580 201.600,342.800 201.600 C 343.020 201.600,343.200 200.880,343.200 200.000 C 343.200 199.120,343.380 198.400,343.600 198.400 C 343.820 198.400,344.000 198.040,344.000 197.600 C 344.000 197.160,344.180 196.800,344.400 196.800 C 344.620 196.800,344.800 196.440,344.800 196.000 C 344.800 195.560,344.980 195.200,345.200 195.200 C 345.420 195.200,345.600 194.480,345.600 193.600 C 345.600 192.720,345.780 192.000,346.000 192.000 C 346.220 192.000,346.400 191.460,346.400 190.800 C 346.400 190.140,346.580 189.600,346.800 189.600 C 347.020 189.600,347.200 188.700,347.200 187.600 C 347.200 186.500,347.380 185.600,347.600 185.600 C 347.820 185.600,348.000 185.060,348.000 184.400 C 348.000 183.740,348.180 183.200,348.400 183.200 C 348.620 183.200,348.800 182.660,348.800 182.000 C 348.800 181.340,348.980 180.800,349.200 180.800 C 349.420 180.800,349.600 180.260,349.600 179.600 C 349.600 178.940,349.780 178.400,350.000 178.400 C 350.220 178.400,350.400 177.680,350.400 176.800 C 350.400 175.920,350.580 175.200,350.800 175.200 C 351.020 175.200,351.200 174.300,351.200 173.200 C 351.200 172.100,351.380 171.200,351.600 171.200 C 351.820 171.200,352.000 170.300,352.000 169.200 C 352.000 168.100,352.180 167.200,352.400 167.200 C 352.629 167.200,352.800 166.000,352.800 164.400 C 352.800 162.800,352.971 161.600,353.200 161.600 C 353.422 161.600,353.600 160.533,353.600 159.200 C 353.600 157.867,353.778 156.800,354.000 156.800 C 354.249 156.800,354.400 154.533,354.400 150.800 C 354.400 147.067,354.249 144.800,354.000 144.800 C 353.780 144.800,353.600 143.900,353.600 142.800 C 353.600 141.700,353.420 140.800,353.200 140.800 C 352.971 140.800,352.800 139.600,352.800 138.000 C 352.800 136.400,352.629 135.200,352.400 135.200 C 352.173 135.200,352.000 134.029,352.000 132.488 C 352.000 130.235,351.865 129.679,351.200 129.200 C 350.730 128.861,350.400 128.165,350.400 127.512 C 350.400 126.900,350.220 126.400,350.000 126.400 C 349.780 126.400,349.600 126.040,349.600 125.600 C 349.600 125.160,349.420 124.800,349.200 124.800 C 348.980 124.800,348.800 124.260,348.800 123.600 C 348.800 122.940,348.620 122.400,348.400 122.400 C 348.180 122.400,348.000 122.040,348.000 121.600 C 348.000 121.160,347.820 120.800,347.600 120.800 C 347.380 120.800,347.200 120.512,347.200 120.160 C 347.200 119.809,346.660 119.017,346.000 118.400 C 345.340 117.783,344.800 117.063,344.800 116.800 C 344.800 116.537,344.260 115.817,343.600 115.200 C 342.940 114.583,342.400 113.791,342.400 113.440 C 342.400 113.088,342.220 112.800,342.000 112.800 C 341.780 112.800,341.600 112.528,341.600 112.197 C 341.600 111.464,330.219 100.000,329.492 100.000 C 329.208 100.000,328.717 99.640,328.400 99.200 C 328.083 98.760,327.543 98.400,327.200 98.400 C 326.857 98.400,326.317 98.040,326.000 97.600 C 325.683 97.160,325.143 96.800,324.800 96.800 C 324.457 96.800,323.917 96.440,323.600 96.000 C 323.283 95.560,322.703 95.200,322.312 95.200 C 321.920 95.200,321.600 95.020,321.600 94.800 C 321.600 94.580,321.280 94.400,320.888 94.400 C 320.497 94.400,319.917 94.040,319.600 93.600 C 319.283 93.160,318.743 92.800,318.400 92.800 C 318.057 92.800,317.517 92.440,317.200 92.000 C 316.883 91.560,316.303 91.200,315.912 91.200 C 315.520 91.200,315.200 91.020,315.200 90.800 C 315.200 90.580,314.840 90.400,314.400 90.400 C 313.960 90.400,313.600 90.220,313.600 90.000 C 313.600 89.780,313.060 89.600,312.400 89.600 C 311.740 89.600,311.200 89.420,311.200 89.200 C 311.200 88.980,310.840 88.800,310.400 88.800 C 309.960 88.800,309.600 88.620,309.600 88.400 C 309.600 88.180,309.060 88.000,308.400 88.000 C 307.740 88.000,307.200 87.820,307.200 87.600 C 307.200 87.380,306.840 87.200,306.400 87.200 C 305.960 87.200,305.600 87.020,305.600 86.800 C 305.600 86.578,304.533 86.400,303.200 86.400 C 301.867 86.400,300.800 86.222,300.800 86.000 C 300.800 85.780,300.260 85.600,299.600 85.600 C 298.940 85.600,298.400 85.420,298.400 85.200 C 298.400 84.978,297.333 84.800,296.000 84.800 C 294.667 84.800,293.600 84.622,293.600 84.400 C 293.600 83.766,276.130 83.864,275.833 84.500 C 275.647 84.900,275.553 84.900,275.367 84.500 C 275.087 83.901,271.200 83.807,271.200 84.400 C 271.200 84.620,270.840 84.800,270.400 84.800 C 269.960 84.800,269.600 84.980,269.600 85.200 C 269.600 85.422,268.533 85.600,267.200 85.600 C 265.867 85.600,264.800 85.778,264.800 86.000 C 264.800 86.229,263.600 86.400,262.000 86.400 C 260.400 86.400,259.200 86.571,259.200 86.800 C 259.200 87.020,258.300 87.200,257.200 87.200 C 256.100 87.200,255.200 87.380,255.200 87.600 C 255.200 87.822,254.133 88.000,252.800 88.000 C 251.467 88.000,250.400 87.822,250.400 87.600 C 250.400 86.993,244.919 87.088,244.633 87.700 C 244.447 88.100,244.353 88.100,244.167 87.700 C 244.038 87.425,243.408 87.200,242.767 87.200 C 242.125 87.200,241.600 87.020,241.600 86.800 C 241.600 86.580,241.240 86.400,240.800 86.400 C 240.360 86.400,240.000 86.580,240.000 86.800 C 240.000 87.020,239.640 87.200,239.200 87.200 C 238.760 87.200,238.400 87.380,238.400 87.600 C 238.400 87.846,236.400 88.000,233.200 88.000 C 230.000 88.000,228.000 88.154,228.000 88.400 C 228.000 88.642,226.267 88.800,223.600 88.800 C 220.933 88.800,219.200 88.642,219.200 88.400 C 219.200 87.778,210.517 87.875,210.264 88.500 C 210.111 88.878,209.948 88.853,209.600 88.400 C 209.252 87.947,209.089 87.922,208.936 88.300 C 208.785 88.672,207.005 88.800,201.967 88.800 C 194.241 88.800,194.014 88.677,196.800 86.000 C 197.680 85.154,198.400 84.218,198.400 83.920 C 198.400 83.621,198.760 83.117,199.200 82.800 C 199.640 82.483,200.000 81.980,200.000 81.683 C 200.000 81.031,200.971 80.000,201.585 80.000 C 202.166 80.000,204.800 77.357,204.800 76.774 C 204.800 76.525,205.340 75.817,206.000 75.200 C 206.660 74.583,207.200 73.791,207.200 73.440 C 207.200 73.088,207.380 72.800,207.600 72.800 C 207.820 72.800,208.000 72.440,208.000 72.000 C 208.000 71.560,208.180 71.200,208.400 71.200 C 208.620 71.200,208.800 70.880,208.800 70.488 C 208.800 70.097,209.160 69.517,209.600 69.200 C 210.040 68.883,210.400 68.343,210.400 68.000 C 210.400 67.657,210.760 67.117,211.200 66.800 C 211.640 66.483,212.000 65.903,212.000 65.512 C 212.000 65.120,212.180 64.800,212.400 64.800 C 212.620 64.800,212.800 64.440,212.800 64.000 C 212.800 63.467,213.067 63.200,213.600 63.200 C 214.062 63.200,214.400 62.933,214.400 62.569 C 214.400 62.221,215.120 61.246,216.000 60.400 C 216.880 59.554,217.600 58.618,217.600 58.320 C 217.600 58.021,217.960 57.517,218.400 57.200 C 218.840 56.883,219.200 56.303,219.200 55.912 C 219.200 55.520,219.380 55.200,219.600 55.200 C 219.820 55.200,220.000 54.840,220.000 54.400 C 220.000 53.960,220.180 53.600,220.400 53.600 C 220.620 53.600,220.800 52.880,220.800 52.000 C 220.800 51.120,220.980 50.400,221.200 50.400 C 221.420 50.400,221.600 50.080,221.600 49.688 C 221.600 49.297,221.960 48.717,222.400 48.400 C 222.840 48.083,223.200 47.543,223.200 47.200 C 223.200 46.857,223.560 46.317,224.000 46.000 C 224.440 45.683,224.800 45.118,224.800 44.745 C 224.800 44.372,225.025 43.975,225.300 43.864 C 225.679 43.710,225.657 43.562,225.213 43.253 C 224.714 42.907,224.759 42.729,225.513 42.076 C 226.001 41.652,226.400 41.012,226.400 40.653 C 226.400 40.294,226.580 40.000,226.800 40.000 C 227.020 40.000,227.200 39.640,227.200 39.200 C 227.200 38.760,227.380 38.400,227.600 38.400 C 227.820 38.400,228.000 38.040,228.000 37.600 C 228.000 37.160,228.180 36.800,228.400 36.800 C 228.620 36.800,228.800 36.440,228.800 36.000 C 228.800 35.560,228.980 35.200,229.200 35.200 C 229.420 35.200,229.600 34.660,229.600 34.000 C 229.600 33.340,229.780 32.800,230.000 32.800 C 230.233 32.800,230.400 31.467,230.400 29.600 C 230.400 27.733,230.233 26.400,230.000 26.400 C 229.780 26.400,229.600 26.040,229.600 25.600 C 229.600 25.160,229.420 24.800,229.200 24.800 C 228.980 24.800,228.800 23.982,228.800 22.982 C 228.800 20.933,227.507 19.200,225.979 19.200 C 225.507 19.200,224.617 18.660,224.000 18.000 C 223.383 17.340,222.591 16.800,222.240 16.800 C 221.888 16.800,221.600 16.620,221.600 16.400 C 221.600 16.178,220.533 16.000,219.200 16.000 C 217.867 16.000,216.800 16.178,216.800 16.400 M221.600 137.200 C 221.600 137.420,222.100 137.600,222.712 137.600 C 223.365 137.600,224.061 137.930,224.400 138.400 C 224.717 138.840,225.297 139.200,225.688 139.200 C 226.104 139.200,226.400 139.496,226.400 139.912 C 226.400 140.303,226.760 140.883,227.200 141.200 C 227.742 141.591,228.000 142.235,228.000 143.200 C 228.000 144.165,228.258 144.809,228.800 145.200 C 229.240 145.517,229.600 146.097,229.600 146.488 C 229.600 146.880,229.780 147.200,230.000 147.200 C 230.244 147.200,230.400 149.067,230.400 152.000 C 230.400 154.933,230.244 156.800,230.000 156.800 C 229.780 156.800,229.600 157.520,229.600 158.400 C 229.600 159.280,229.420 160.000,229.200 160.000 C 228.980 160.000,228.800 160.320,228.800 160.712 C 228.800 161.103,228.440 161.683,228.000 162.000 C 227.560 162.317,227.200 162.813,227.200 163.102 C 227.200 163.831,224.562 166.400,223.813 166.400 C 223.476 166.400,223.200 166.580,223.200 166.800 C 223.200 167.022,222.133 167.200,220.800 167.200 C 219.467 167.200,218.400 167.022,218.400 166.800 C 218.400 166.571,217.200 166.400,215.600 166.400 C 214.000 166.400,212.800 166.229,212.800 166.000 C 212.800 165.767,211.467 165.600,209.600 165.600 C 207.733 165.600,206.400 165.433,206.400 165.200 C 206.400 164.980,206.124 164.800,205.787 164.800 C 204.991 164.800,202.400 162.209,202.400 161.413 C 202.400 161.076,202.220 160.800,202.000 160.800 C 201.780 160.800,201.600 160.440,201.600 160.000 C 201.600 159.560,201.780 159.200,202.000 159.200 C 202.220 159.200,202.400 158.480,202.400 157.600 C 202.400 156.720,202.580 156.000,202.800 156.000 C 203.020 156.000,203.200 155.640,203.200 155.200 C 203.200 154.760,203.380 154.400,203.600 154.400 C 203.820 154.400,204.000 153.500,204.000 152.400 C 204.000 151.300,204.180 150.400,204.400 150.400 C 204.620 150.400,204.800 150.080,204.800 149.688 C 204.800 149.297,205.160 148.717,205.600 148.400 C 206.040 148.083,206.400 147.543,206.400 147.200 C 206.400 146.857,206.760 146.317,207.200 146.000 C 207.640 145.683,208.000 145.103,208.000 144.712 C 208.000 144.320,208.180 144.000,208.400 144.000 C 208.620 144.000,208.800 143.680,208.800 143.288 C 208.800 142.897,209.160 142.317,209.600 142.000 C 210.040 141.683,210.400 141.103,210.400 140.712 C 210.400 140.267,210.700 140.000,211.200 140.000 C 211.640 140.000,212.000 139.820,212.000 139.600 C 212.000 139.380,212.360 139.200,212.800 139.200 C 213.240 139.200,213.600 139.020,213.600 138.800 C 213.600 138.580,213.960 138.400,214.400 138.400 C 214.840 138.400,215.200 138.220,215.200 138.000 C 215.200 137.780,215.920 137.600,216.800 137.600 C 217.680 137.600,218.400 137.420,218.400 137.200 C 218.400 136.980,219.120 136.800,220.000 136.800 C 220.880 136.800,221.600 136.980,221.600 137.200 " stroke="none" fill="#e00404" fill-rule="evenodd"></path><path id="path2" d="" stroke="none" fill="#e4bc100" fill-rule="evenodd"></path><path id="path3" d="" stroke="none" fill="#e4bc100" fill-rule="evenodd"></path><path id="path4" d="" stroke="none" fill="#e4bc100" fill-rule="evenodd"></path></g></svg>
