<svg id="svg" version="1.1" xmlns="http://www.w3.org/2000/svg" xmlns:xlink="http://www.w3.org/1999/xlink" width="400" height="400" viewBox="0, 0, 400,400"><g id="svgg"><path id="path0" d="M246.978 90.826 C 233.225 93.814,228.415 108.653,237.531 119.966 L 238.354 120.987 236.903 124.849 C 236.104 126.973,234.146 133.896,232.551 140.234 C 229.368 152.882,228.317 155.634,225.527 158.616 C 219.567 164.989,211.247 165.776,200.842 160.953 C 177.775 150.262,155.879 150.083,135.843 160.423 C 116.634 170.336,103.935 187.276,92.119 218.750 C 81.980 245.757,67.306 259.342,43.555 263.710 C 37.300 264.860,36.647 265.619,38.965 269.051 C 45.020 278.018,64.372 280.751,79.567 274.786 C 86.725 271.976,92.263 268.011,100.045 260.123 L 105.754 254.337 105.975 261.055 C 106.287 270.505,107.589 275.024,111.102 278.851 C 114.237 282.266,110.771 282.013,154.590 282.023 L 193.359 282.031 193.359 279.758 C 193.359 275.854,192.438 273.616,189.709 270.889 C 185.506 266.689,185.315 266.650,168.023 266.412 L 153.429 266.211 156.577 263.577 C 180.686 243.402,176.194 211.936,147.852 202.465 L 143.945 201.160 149.023 201.328 C 177.123 202.258,190.971 232.616,173.676 255.371 L 171.523 258.203 179.252 258.203 C 183.503 258.203,194.638 258.319,203.996 258.461 L 221.010 258.720 219.528 254.262 C 216.396 244.845,215.655 235.247,217.528 228.334 C 218.763 223.772,218.998 223.993,219.257 229.961 C 219.996 246.985,228.298 268.216,238.543 279.281 L 241.089 282.031 256.447 282.031 L 271.804 282.031 271.310 280.159 C 270.221 276.030,269.455 275.022,263.050 269.291 C 257.357 264.196,255.805 258.042,257.661 247.926 C 258.279 244.558,258.328 244.463,259.908 243.471 C 273.446 234.978,284.132 221.990,289.567 207.422 C 292.989 198.253,293.735 192.945,294.098 175.195 C 294.367 162.072,294.441 161.010,295.212 159.292 C 296.149 157.201,295.863 157.314,302.468 156.437 C 322.121 153.830,335.409 145.016,339.220 132.058 C 340.807 126.660,340.434 126.163,332.897 123.630 C 325.867 121.267,323.000 119.572,316.406 113.877 C 300.399 100.052,281.435 93.535,267.470 97.059 L 264.823 97.727 262.221 95.293 C 257.536 90.910,252.876 89.544,246.978 90.826 M296.385 115.835 C 302.060 118.206,302.269 126.032,296.725 128.550 C 290.813 131.234,284.688 125.145,287.486 119.365 C 289.162 115.902,292.949 114.400,296.385 115.835 M274.600 241.261 C 271.490 244.189,267.759 247.548,266.309 248.727 C 263.207 251.247,263.280 250.908,265.169 253.997 C 265.993 255.344,267.609 258.203,268.760 260.352 C 269.912 262.500,272.022 266.304,273.448 268.804 C 274.875 271.305,276.812 275.304,277.752 277.691 L 279.463 282.031 295.200 282.031 C 306.239 282.031,310.938 281.905,310.938 281.608 C 310.938 281.375,310.575 279.767,310.133 278.033 C 308.315 270.912,306.186 268.766,299.553 267.371 C 289.667 265.291,283.882 256.712,281.365 240.399 C 280.987 237.945,280.582 235.938,280.466 235.938 C 280.350 235.938,277.710 238.333,274.600 241.261 " stroke="none" fill="#d34323" fill-rule="evenodd"></path><path id="path1" d="M0.000 200.000 L 0.000 400.000 200.000 400.000 L 400.000 400.000 400.000 200.000 L 400.000 0.000 200.000 0.000 L 0.000 0.000 0.000 200.000 M257.103 91.489 C 258.323 92.051,260.494 93.601,261.926 94.933 C 264.379 97.215,264.613 97.341,265.956 97.099 C 271.262 96.145,272.893 96.015,276.953 96.221 C 290.406 96.903,302.645 101.973,313.867 111.513 C 324.114 120.224,325.083 120.826,333.398 123.650 C 341.000 126.231,341.548 127.387,338.574 134.570 C 333.420 147.020,321.580 153.878,299.628 157.128 C 294.602 157.873,294.796 157.267,294.474 173.242 C 294.332 180.332,294.013 187.979,293.766 190.234 C 291.436 211.556,280.186 229.953,261.870 242.397 L 258.399 244.755 257.884 247.280 C 255.706 257.949,257.884 265.254,264.920 270.883 C 268.484 273.734,270.076 275.752,271.095 278.714 C 272.504 282.811,274.031 282.422,256.547 282.422 L 241.219 282.422 238.729 279.785 C 228.445 268.890,220.176 248.002,218.898 229.688 L 218.612 225.586 217.853 227.930 C 215.900 233.959,216.628 244.980,219.544 253.516 C 220.388 255.986,221.126 258.164,221.184 258.355 C 221.267 258.629,171.481 258.738,171.230 258.464 C 171.197 258.428,172.221 256.992,173.507 255.273 C 190.653 232.345,177.319 202.987,149.023 201.370 L 145.117 201.147 148.633 202.463 C 175.420 212.490,180.533 239.862,159.539 260.840 L 154.359 266.016 166.340 266.023 C 172.929 266.028,179.545 266.208,181.043 266.425 C 188.414 267.490,193.120 272.212,193.638 279.064 L 193.863 282.031 174.373 282.102 C 163.653 282.141,145.918 282.129,134.961 282.076 L 115.039 281.980 113.408 281.029 C 108.406 278.115,106.034 271.771,105.793 260.663 L 105.664 254.724 100.391 260.092 C 85.103 275.655,69.412 281.213,52.398 277.093 C 43.867 275.028,36.545 269.078,37.929 265.336 C 38.161 264.711,39.161 264.388,43.478 263.541 C 67.576 258.815,81.839 245.624,91.934 218.726 C 102.551 190.436,113.109 174.965,129.114 164.242 C 150.074 150.199,174.981 148.832,200.000 160.352 C 211.319 165.564,218.680 165.123,224.980 158.855 C 228.068 155.784,228.996 153.426,232.402 140.012 C 234.089 133.367,236.014 126.527,236.680 124.814 C 238.197 120.909,238.208 121.081,236.275 118.641 C 225.366 104.871,241.235 84.183,257.103 91.489 M290.821 116.240 C 288.176 117.619,287.109 119.443,287.109 122.586 C 287.109 130.076,298.519 131.295,300.356 124.001 C 301.742 118.493,295.791 113.649,290.821 116.240 M281.595 240.628 C 284.327 257.419,289.738 265.094,300.466 267.393 C 306.652 268.719,310.052 273.151,311.025 281.159 L 311.133 282.045 295.250 282.136 L 279.368 282.227 277.524 277.657 C 276.510 275.144,274.895 271.716,273.935 270.040 C 272.976 268.364,271.044 264.883,269.641 262.305 C 268.239 259.727,266.213 256.151,265.139 254.360 L 263.187 251.103 264.651 249.896 C 267.361 247.662,270.189 245.143,275.398 240.322 C 278.248 237.685,280.629 235.577,280.690 235.638 C 280.751 235.699,281.158 237.945,281.595 240.628 " stroke="none" fill="#fbfbfb" fill-rule="evenodd"></path><path id="path2" d="M275.879 96.363 C 276.255 96.461,276.870 96.461,277.246 96.363 C 277.622 96.265,277.314 96.184,276.563 96.184 C 275.811 96.184,275.503 96.265,275.879 96.363 M294.262 165.820 C 294.264 167.109,294.337 167.590,294.424 166.888 C 294.511 166.185,294.509 165.131,294.420 164.544 C 294.331 163.957,294.259 164.531,294.262 165.820 M216.497 235.156 C 216.497 235.908,216.577 236.216,216.676 235.840 C 216.774 235.464,216.774 234.849,216.676 234.473 C 216.577 234.097,216.497 234.404,216.497 235.156 M216.497 239.844 C 216.497 240.596,216.577 240.903,216.676 240.527 C 216.774 240.151,216.774 239.536,216.676 239.160 C 216.577 238.784,216.497 239.092,216.497 239.844 M191.715 258.493 C 193.066 258.569,195.175 258.569,196.402 258.491 C 197.629 258.414,196.523 258.351,193.945 258.352 C 191.367 258.353,190.363 258.416,191.715 258.493 M161.253 266.308 C 163.897 266.375,168.116 266.375,170.628 266.307 C 173.140 266.239,170.977 266.184,165.820 266.184 C 160.664 266.184,158.609 266.240,161.253 266.308 M193.466 280.469 C 193.466 281.436,193.542 281.831,193.635 281.348 C 193.728 280.864,193.728 280.073,193.635 279.590 C 193.542 279.106,193.466 279.502,193.466 280.469 " stroke="none" fill="#dfa698" fill-rule="evenodd"></path><path id="path3" d="M165.918 152.619 C 166.401 152.713,167.192 152.713,167.676 152.619 C 168.159 152.526,167.764 152.450,166.797 152.450 C 165.830 152.450,165.435 152.526,165.918 152.619 M294.300 175.000 C 294.300 178.545,294.359 179.995,294.431 178.223 C 294.504 176.450,294.504 173.550,294.431 171.777 C 294.359 170.005,294.300 171.455,294.300 175.000 M162.109 210.278 C 162.109 210.346,162.681 210.917,163.379 211.548 L 164.648 212.695 163.501 211.426 C 162.432 210.242,162.109 209.977,162.109 210.278 M273.608 241.895 L 272.461 243.164 273.730 242.017 C 274.429 241.386,275.000 240.814,275.000 240.747 C 275.000 240.445,274.678 240.711,273.608 241.895 M105.580 256.836 C 105.583 257.910,105.659 258.303,105.749 257.709 C 105.839 257.116,105.836 256.237,105.744 255.756 C 105.651 255.276,105.578 255.762,105.580 256.836 M175.488 258.494 C 177.583 258.565,181.011 258.565,183.105 258.494 C 185.200 258.424,183.486 258.367,179.297 258.367 C 175.107 258.367,173.394 258.424,175.488 258.494 M217.487 258.877 C 218.190 258.964,219.244 258.962,219.831 258.873 C 220.418 258.784,219.844 258.713,218.555 258.715 C 217.266 258.717,216.785 258.790,217.487 258.877 M61.426 278.405 C 62.017 278.494,62.983 278.494,63.574 278.405 C 64.165 278.315,63.682 278.242,62.500 278.242 C 61.318 278.242,60.835 278.315,61.426 278.405 M148.940 282.320 C 150.183 282.398,152.117 282.397,153.237 282.319 C 154.357 282.240,153.340 282.176,150.977 282.177 C 148.613 282.178,147.697 282.243,148.940 282.320 M249.095 282.324 C 253.217 282.387,260.072 282.387,264.330 282.324 C 268.587 282.261,265.215 282.209,256.836 282.209 C 248.457 282.209,244.974 282.260,249.095 282.324 " stroke="none" fill="#ecd6cd" fill-rule="evenodd"></path><path id="path4" d="M272.635 233.496 L 271.289 234.961 272.754 233.615 C 274.117 232.362,274.398 232.031,274.100 232.031 C 274.035 232.031,273.376 232.690,272.635 233.496 M216.497 237.500 C 216.497 238.252,216.577 238.560,216.676 238.184 C 216.774 237.808,216.774 237.192,216.676 236.816 C 216.577 236.440,216.497 236.748,216.497 237.500 M187.407 258.479 C 187.893 258.573,188.596 258.569,188.969 258.472 C 189.343 258.374,188.945 258.297,188.086 258.302 C 187.227 258.306,186.921 258.386,187.407 258.479 M154.785 266.285 C 155.161 266.383,155.776 266.383,156.152 266.285 C 156.528 266.187,156.221 266.106,155.469 266.106 C 154.717 266.106,154.409 266.187,154.785 266.285 M175.688 266.292 C 176.174 266.385,176.877 266.382,177.251 266.284 C 177.624 266.186,177.227 266.110,176.367 266.114 C 175.508 266.118,175.202 266.198,175.688 266.292 " stroke="none" fill="#e7c4bc" fill-rule="evenodd"></path></g></svg>